%TF.GenerationSoftware,KiCad,Pcbnew,7.0.1*%
%TF.CreationDate,2024-04-03T13:53:06+02:00*%
%TF.ProjectId,filament,66696c61-6d65-46e7-942e-6b696361645f,rev?*%
%TF.SameCoordinates,Original*%
%TF.FileFunction,Copper,L2,Bot*%
%TF.FilePolarity,Positive*%
%FSLAX46Y46*%
G04 Gerber Fmt 4.6, Leading zero omitted, Abs format (unit mm)*
G04 Created by KiCad (PCBNEW 7.0.1) date 2024-04-03 13:53:06*
%MOMM*%
%LPD*%
G01*
G04 APERTURE LIST*
G04 Aperture macros list*
%AMRoundRect*
0 Rectangle with rounded corners*
0 $1 Rounding radius*
0 $2 $3 $4 $5 $6 $7 $8 $9 X,Y pos of 4 corners*
0 Add a 4 corners polygon primitive as box body*
4,1,4,$2,$3,$4,$5,$6,$7,$8,$9,$2,$3,0*
0 Add four circle primitives for the rounded corners*
1,1,$1+$1,$2,$3*
1,1,$1+$1,$4,$5*
1,1,$1+$1,$6,$7*
1,1,$1+$1,$8,$9*
0 Add four rect primitives between the rounded corners*
20,1,$1+$1,$2,$3,$4,$5,0*
20,1,$1+$1,$4,$5,$6,$7,0*
20,1,$1+$1,$6,$7,$8,$9,0*
20,1,$1+$1,$8,$9,$2,$3,0*%
G04 Aperture macros list end*
%TA.AperFunction,SMDPad,CuDef*%
%ADD10RoundRect,0.500000X0.500000X-2.000000X0.500000X2.000000X-0.500000X2.000000X-0.500000X-2.000000X0*%
%TD*%
%TA.AperFunction,ComponentPad*%
%ADD11C,1.785000*%
%TD*%
%TA.AperFunction,SMDPad,CuDef*%
%ADD12RoundRect,0.250000X-0.450000X0.262500X-0.450000X-0.262500X0.450000X-0.262500X0.450000X0.262500X0*%
%TD*%
%TA.AperFunction,SMDPad,CuDef*%
%ADD13RoundRect,0.225000X0.375000X-0.225000X0.375000X0.225000X-0.375000X0.225000X-0.375000X-0.225000X0*%
%TD*%
%TA.AperFunction,SMDPad,CuDef*%
%ADD14RoundRect,0.150000X-0.150000X0.587500X-0.150000X-0.587500X0.150000X-0.587500X0.150000X0.587500X0*%
%TD*%
%TA.AperFunction,SMDPad,CuDef*%
%ADD15R,8.200000X2.600000*%
%TD*%
%TA.AperFunction,SMDPad,CuDef*%
%ADD16RoundRect,0.250000X-0.262500X-0.450000X0.262500X-0.450000X0.262500X0.450000X-0.262500X0.450000X0*%
%TD*%
%TA.AperFunction,SMDPad,CuDef*%
%ADD17RoundRect,0.150000X0.150000X-0.587500X0.150000X0.587500X-0.150000X0.587500X-0.150000X-0.587500X0*%
%TD*%
%TA.AperFunction,SMDPad,CuDef*%
%ADD18RoundRect,0.250000X-0.475000X0.250000X-0.475000X-0.250000X0.475000X-0.250000X0.475000X0.250000X0*%
%TD*%
%TA.AperFunction,SMDPad,CuDef*%
%ADD19R,0.700000X1.500000*%
%TD*%
%TA.AperFunction,SMDPad,CuDef*%
%ADD20R,1.000000X0.800000*%
%TD*%
%TA.AperFunction,SMDPad,CuDef*%
%ADD21RoundRect,0.225000X-0.250000X0.225000X-0.250000X-0.225000X0.250000X-0.225000X0.250000X0.225000X0*%
%TD*%
%TA.AperFunction,ViaPad*%
%ADD22C,0.800000*%
%TD*%
%TA.AperFunction,Conductor*%
%ADD23C,0.500000*%
%TD*%
%TA.AperFunction,Conductor*%
%ADD24C,1.000000*%
%TD*%
%TA.AperFunction,Conductor*%
%ADD25C,0.250000*%
%TD*%
G04 APERTURE END LIST*
D10*
%TO.P,D2,1,K*%
%TO.N,GND*%
X146300000Y-115000000D03*
%TO.P,D2,2,A*%
%TO.N,Net-(D1-K)*%
X146300000Y-80000000D03*
%TD*%
D11*
%TO.P,BT1,P*%
%TO.N,Net-(SW1-B)*%
X130400000Y-72250000D03*
%TO.P,BT1,N*%
%TO.N,GND*%
X130400000Y-121350000D03*
%TD*%
D12*
%TO.P,R1,2*%
%TO.N,Net-(SW1-C)*%
X136700000Y-85312500D03*
%TO.P,R1,1*%
%TO.N,Net-(Q1-C)*%
X136700000Y-83487500D03*
%TD*%
D13*
%TO.P,D1,2,A*%
%TO.N,Net-(D1-A)*%
X132078596Y-85150000D03*
%TO.P,D1,1,K*%
%TO.N,Net-(D1-K)*%
X132078596Y-88450000D03*
%TD*%
D14*
%TO.P,Q1,3,C*%
%TO.N,Net-(Q1-C)*%
X135033596Y-81697500D03*
%TO.P,Q1,2,E*%
%TO.N,GND*%
X135983596Y-79822500D03*
%TO.P,Q1,1,B*%
%TO.N,Net-(Q1-B)*%
X134083596Y-79822500D03*
%TD*%
D15*
%TO.P,L1,1,1*%
%TO.N,Net-(D1-A)*%
X128978596Y-82800000D03*
%TO.P,L1,2,2*%
%TO.N,Net-(SW1-B)*%
X128978596Y-77200000D03*
%TD*%
D16*
%TO.P,R2,2*%
%TO.N,Net-(Q1-C)*%
X136012500Y-87200000D03*
%TO.P,R2,1*%
%TO.N,Net-(Q1-B)*%
X134187500Y-87200000D03*
%TD*%
D17*
%TO.P,Q2,3,C*%
%TO.N,Net-(D1-A)*%
X134950000Y-90525000D03*
%TO.P,Q2,2,E*%
%TO.N,GND*%
X134000000Y-92400000D03*
%TO.P,Q2,1,B*%
%TO.N,Net-(Q1-C)*%
X135900000Y-92400000D03*
%TD*%
D18*
%TO.P,C2,2*%
%TO.N,GND*%
X129878596Y-90650000D03*
%TO.P,C2,1*%
%TO.N,Net-(D1-K)*%
X129878596Y-88750000D03*
%TD*%
D19*
%TO.P,SW1,3,C*%
%TO.N,Net-(SW1-C)*%
X147850000Y-70550000D03*
%TO.P,SW1,2,B*%
%TO.N,Net-(SW1-B)*%
X146350000Y-70550000D03*
%TO.P,SW1,1,A*%
%TO.N,unconnected-(SW1-A-Pad1)*%
X143350000Y-70550000D03*
D20*
%TO.P,SW1,*%
%TO.N,*%
X149250000Y-69900000D03*
X149250000Y-67700000D03*
X141950000Y-69900000D03*
X141950000Y-67700000D03*
%TD*%
D21*
%TO.P,C1,2*%
%TO.N,Net-(D1-A)*%
X134078596Y-84975000D03*
%TO.P,C1,1*%
%TO.N,Net-(Q1-B)*%
X134078596Y-83425000D03*
%TD*%
D22*
%TO.N,Net-(Q1-C)*%
X137000500Y-86606787D03*
X137000000Y-92400000D03*
%TD*%
D23*
%TO.N,Net-(D1-A)*%
X134950000Y-90050000D02*
X134600000Y-89700000D01*
X134950000Y-90525000D02*
X134950000Y-90050000D01*
D24*
%TO.N,Net-(D1-K)*%
X139800000Y-80000000D02*
X146300000Y-80000000D01*
X136400000Y-88700000D02*
X136568503Y-88700000D01*
X136568503Y-88700000D02*
X138100000Y-87168503D01*
X136350000Y-88750000D02*
X136400000Y-88700000D01*
X138100000Y-85133452D02*
X138800000Y-84433452D01*
X138800000Y-81000000D02*
X139800000Y-80000000D01*
X131778596Y-88750000D02*
X136350000Y-88750000D01*
X138800000Y-84433452D02*
X138800000Y-81000000D01*
X138100000Y-87168503D02*
X138100000Y-85133452D01*
D23*
%TO.N,Net-(Q1-C)*%
X137000000Y-92400000D02*
X135900000Y-92400000D01*
D25*
X136407287Y-87200000D02*
X137000500Y-86606787D01*
X136012500Y-87200000D02*
X136407287Y-87200000D01*
D24*
%TO.N,GND*%
X130400000Y-92300000D02*
X130400000Y-91171404D01*
X130400000Y-92300000D02*
X133900000Y-92300000D01*
X130400000Y-121350000D02*
X130400000Y-92300000D01*
D23*
%TO.N,Net-(SW1-C)*%
X147850000Y-71050000D02*
X147850000Y-70550000D01*
X147150000Y-71750000D02*
X147850000Y-71050000D01*
X146450000Y-71750000D02*
X147150000Y-71750000D01*
X137850000Y-84039949D02*
X137850000Y-80350000D01*
X137439949Y-84450000D02*
X137850000Y-84039949D01*
X137850000Y-80350000D02*
X146450000Y-71750000D01*
X136700000Y-84450000D02*
X137439949Y-84450000D01*
X136700000Y-85312500D02*
X136700000Y-84450000D01*
D25*
%TO.N,Net-(Q1-C)*%
X135603596Y-84583904D02*
X136700000Y-83487500D01*
X136012500Y-87200000D02*
X135603596Y-86791096D01*
X135603596Y-86791096D02*
X135603596Y-84583904D01*
D23*
%TO.N,GND*%
X132500000Y-79820068D02*
X132500000Y-79900000D01*
X133685068Y-78635000D02*
X132500000Y-79820068D01*
X134796096Y-78635000D02*
X133685068Y-78635000D01*
X135983596Y-79822500D02*
X134796096Y-78635000D01*
D24*
X125078596Y-79900000D02*
X132500000Y-79900000D01*
X124178596Y-80800000D02*
X125078596Y-79900000D01*
X124178596Y-86122098D02*
X124178596Y-80800000D01*
X128706498Y-90650000D02*
X124178596Y-86122098D01*
X129878596Y-90650000D02*
X128706498Y-90650000D01*
D23*
%TO.N,Net-(SW1-B)*%
X143160000Y-73740000D02*
X131890000Y-73740000D01*
X131890000Y-73740000D02*
X130400000Y-72250000D01*
X146350000Y-70550000D02*
X143160000Y-73740000D01*
D24*
X128978596Y-73671404D02*
X130400000Y-72250000D01*
X128978596Y-77200000D02*
X128978596Y-73671404D01*
%TO.N,Net-(Q1-C)*%
X136700000Y-83363904D02*
X135033596Y-81697500D01*
X136700000Y-83487500D02*
X136700000Y-83363904D01*
D23*
%TO.N,Net-(Q1-B)*%
X134078596Y-83425000D02*
X134078596Y-79827500D01*
X134078596Y-79827500D02*
X134083596Y-79822500D01*
X135028596Y-84375000D02*
X134078596Y-83425000D01*
X134187500Y-87200000D02*
X135028596Y-86358904D01*
X135028596Y-86358904D02*
X135028596Y-84375000D01*
%TO.N,Net-(D1-A)*%
X128500000Y-89100000D02*
X128500000Y-83278596D01*
X129100000Y-89700000D02*
X128500000Y-89100000D01*
X134600000Y-89700000D02*
X129100000Y-89700000D01*
X128500000Y-83278596D02*
X128978596Y-82800000D01*
D24*
X133903596Y-85150000D02*
X134078596Y-84975000D01*
X132078596Y-85150000D02*
X133903596Y-85150000D01*
X131328596Y-85150000D02*
X128978596Y-82800000D01*
X132078596Y-85150000D02*
X131328596Y-85150000D01*
%TO.N,Net-(D1-K)*%
X131778596Y-88750000D02*
X132078596Y-88450000D01*
X129878596Y-88750000D02*
X131778596Y-88750000D01*
%TO.N,Net-(Q1-C)*%
X136050000Y-87237500D02*
X136012500Y-87200000D01*
%TO.N,GND*%
X129878596Y-90650000D02*
X130428596Y-91200000D01*
X129878596Y-90650000D02*
X130400000Y-91171404D01*
X144050000Y-121350000D02*
X146300000Y-119100000D01*
X146300000Y-119100000D02*
X146300000Y-115000000D01*
X130400000Y-121350000D02*
X144050000Y-121350000D01*
%TD*%
M02*
