%TF.GenerationSoftware,KiCad,Pcbnew,7.0.1*%
%TF.CreationDate,2024-04-03T13:53:12+02:00*%
%TF.ProjectId,filament,66696c61-6d65-46e7-942e-6b696361645f,rev?*%
%TF.SameCoordinates,Original*%
%TF.FileFunction,Drillmap*%
%TF.FilePolarity,Positive*%
%FSLAX45Y45*%
G04 Gerber Fmt 4.5, Leading zero omitted, Abs format (unit mm)*
G04 Created by KiCad (PCBNEW 7.0.1) date 2024-04-03 13:53:12*
%MOMM*%
%LPD*%
G01*
G04 APERTURE LIST*
%ADD10C,0.100000*%
%ADD11C,0.200000*%
%ADD12C,0.040000*%
%ADD13C,0.119000*%
G04 APERTURE END LIST*
D10*
X15020000Y-11190000D02*
G75*
G03*
X15220000Y-10990000I0J200000D01*
G01*
X12320000Y-6710000D02*
G75*
G03*
X12120000Y-6910000I0J-200000D01*
G01*
X14040000Y-10990000D02*
G75*
G03*
X14240000Y-11190000I200000J0D01*
G01*
X14040000Y-10990000D02*
X14040000Y-8520000D01*
X15020000Y-11190000D02*
X14240000Y-11190000D01*
X15500000Y-6910000D02*
G75*
G03*
X15300000Y-6710000I-200000J0D01*
G01*
X15300000Y-13008579D02*
G75*
G03*
X15500000Y-12808579I0J200000D01*
G01*
X14240000Y-8320000D02*
G75*
G03*
X14040000Y-8520000I0J-200000D01*
G01*
X14240000Y-8320000D02*
X15020000Y-8320000D01*
X12120000Y-12808579D02*
X12120000Y-6910000D01*
X15220000Y-8520000D02*
G75*
G03*
X15020000Y-8320000I-200000J0D01*
G01*
X15220000Y-8520000D02*
X15220000Y-10990000D01*
X12120000Y-12808579D02*
G75*
G03*
X12320000Y-13008579I200000J0D01*
G01*
X12320000Y-6710000D02*
X15300000Y-6710000D01*
X15300000Y-13008579D02*
X12320000Y-13008579D01*
X15500000Y-6910000D02*
X15500000Y-12808579D01*
D11*
D12*
X13680000Y-9220000D02*
X13720000Y-9260000D01*
X13720000Y-9220000D02*
X13680000Y-9260000D01*
X13680050Y-8640679D02*
X13720050Y-8680679D01*
X13720050Y-8640679D02*
X13680050Y-8680679D01*
D13*
X13099500Y-7225000D02*
G75*
G03*
X13099500Y-7225000I-59500J0D01*
G01*
X13099500Y-12135000D02*
G75*
G03*
X13099500Y-12135000I-59500J0D01*
G01*
D11*
X12362619Y-13326102D02*
X12362619Y-13126102D01*
X12362619Y-13126102D02*
X12410238Y-13126102D01*
X12410238Y-13126102D02*
X12438809Y-13135626D01*
X12438809Y-13135626D02*
X12457857Y-13154674D01*
X12457857Y-13154674D02*
X12467381Y-13173721D01*
X12467381Y-13173721D02*
X12476905Y-13211817D01*
X12476905Y-13211817D02*
X12476905Y-13240388D01*
X12476905Y-13240388D02*
X12467381Y-13278483D01*
X12467381Y-13278483D02*
X12457857Y-13297531D01*
X12457857Y-13297531D02*
X12438809Y-13316579D01*
X12438809Y-13316579D02*
X12410238Y-13326102D01*
X12410238Y-13326102D02*
X12362619Y-13326102D01*
X12562619Y-13326102D02*
X12562619Y-13192769D01*
X12562619Y-13230864D02*
X12572143Y-13211817D01*
X12572143Y-13211817D02*
X12581667Y-13202293D01*
X12581667Y-13202293D02*
X12600714Y-13192769D01*
X12600714Y-13192769D02*
X12619762Y-13192769D01*
X12686428Y-13326102D02*
X12686428Y-13192769D01*
X12686428Y-13126102D02*
X12676905Y-13135626D01*
X12676905Y-13135626D02*
X12686428Y-13145150D01*
X12686428Y-13145150D02*
X12695952Y-13135626D01*
X12695952Y-13135626D02*
X12686428Y-13126102D01*
X12686428Y-13126102D02*
X12686428Y-13145150D01*
X12810238Y-13326102D02*
X12791190Y-13316579D01*
X12791190Y-13316579D02*
X12781667Y-13297531D01*
X12781667Y-13297531D02*
X12781667Y-13126102D01*
X12915000Y-13326102D02*
X12895952Y-13316579D01*
X12895952Y-13316579D02*
X12886428Y-13297531D01*
X12886428Y-13297531D02*
X12886428Y-13126102D01*
X13143571Y-13326102D02*
X13143571Y-13126102D01*
X13143571Y-13126102D02*
X13210238Y-13268959D01*
X13210238Y-13268959D02*
X13276905Y-13126102D01*
X13276905Y-13126102D02*
X13276905Y-13326102D01*
X13457857Y-13326102D02*
X13457857Y-13221340D01*
X13457857Y-13221340D02*
X13448333Y-13202293D01*
X13448333Y-13202293D02*
X13429286Y-13192769D01*
X13429286Y-13192769D02*
X13391190Y-13192769D01*
X13391190Y-13192769D02*
X13372143Y-13202293D01*
X13457857Y-13316579D02*
X13438809Y-13326102D01*
X13438809Y-13326102D02*
X13391190Y-13326102D01*
X13391190Y-13326102D02*
X13372143Y-13316579D01*
X13372143Y-13316579D02*
X13362619Y-13297531D01*
X13362619Y-13297531D02*
X13362619Y-13278483D01*
X13362619Y-13278483D02*
X13372143Y-13259436D01*
X13372143Y-13259436D02*
X13391190Y-13249912D01*
X13391190Y-13249912D02*
X13438809Y-13249912D01*
X13438809Y-13249912D02*
X13457857Y-13240388D01*
X13553095Y-13192769D02*
X13553095Y-13392769D01*
X13553095Y-13202293D02*
X13572143Y-13192769D01*
X13572143Y-13192769D02*
X13610238Y-13192769D01*
X13610238Y-13192769D02*
X13629286Y-13202293D01*
X13629286Y-13202293D02*
X13638809Y-13211817D01*
X13638809Y-13211817D02*
X13648333Y-13230864D01*
X13648333Y-13230864D02*
X13648333Y-13288007D01*
X13648333Y-13288007D02*
X13638809Y-13307055D01*
X13638809Y-13307055D02*
X13629286Y-13316579D01*
X13629286Y-13316579D02*
X13610238Y-13326102D01*
X13610238Y-13326102D02*
X13572143Y-13326102D01*
X13572143Y-13326102D02*
X13553095Y-13316579D01*
X13734048Y-13307055D02*
X13743571Y-13316579D01*
X13743571Y-13316579D02*
X13734048Y-13326102D01*
X13734048Y-13326102D02*
X13724524Y-13316579D01*
X13724524Y-13316579D02*
X13734048Y-13307055D01*
X13734048Y-13307055D02*
X13734048Y-13326102D01*
X13734048Y-13202293D02*
X13743571Y-13211817D01*
X13743571Y-13211817D02*
X13734048Y-13221340D01*
X13734048Y-13221340D02*
X13724524Y-13211817D01*
X13724524Y-13211817D02*
X13734048Y-13202293D01*
X13734048Y-13202293D02*
X13734048Y-13221340D01*
D12*
X12075000Y-13633579D02*
X12115000Y-13673579D01*
X12115000Y-13633579D02*
X12075000Y-13673579D01*
D11*
X12400714Y-13546102D02*
X12419762Y-13546102D01*
X12419762Y-13546102D02*
X12438809Y-13555626D01*
X12438809Y-13555626D02*
X12448333Y-13565150D01*
X12448333Y-13565150D02*
X12457857Y-13584198D01*
X12457857Y-13584198D02*
X12467381Y-13622293D01*
X12467381Y-13622293D02*
X12467381Y-13669912D01*
X12467381Y-13669912D02*
X12457857Y-13708007D01*
X12457857Y-13708007D02*
X12448333Y-13727055D01*
X12448333Y-13727055D02*
X12438809Y-13736579D01*
X12438809Y-13736579D02*
X12419762Y-13746102D01*
X12419762Y-13746102D02*
X12400714Y-13746102D01*
X12400714Y-13746102D02*
X12381667Y-13736579D01*
X12381667Y-13736579D02*
X12372143Y-13727055D01*
X12372143Y-13727055D02*
X12362619Y-13708007D01*
X12362619Y-13708007D02*
X12353095Y-13669912D01*
X12353095Y-13669912D02*
X12353095Y-13622293D01*
X12353095Y-13622293D02*
X12362619Y-13584198D01*
X12362619Y-13584198D02*
X12372143Y-13565150D01*
X12372143Y-13565150D02*
X12381667Y-13555626D01*
X12381667Y-13555626D02*
X12400714Y-13546102D01*
X12553095Y-13727055D02*
X12562619Y-13736579D01*
X12562619Y-13736579D02*
X12553095Y-13746102D01*
X12553095Y-13746102D02*
X12543571Y-13736579D01*
X12543571Y-13736579D02*
X12553095Y-13727055D01*
X12553095Y-13727055D02*
X12553095Y-13746102D01*
X12734048Y-13612769D02*
X12734048Y-13746102D01*
X12686428Y-13536579D02*
X12638809Y-13679436D01*
X12638809Y-13679436D02*
X12762619Y-13679436D01*
X12876905Y-13546102D02*
X12895952Y-13546102D01*
X12895952Y-13546102D02*
X12915000Y-13555626D01*
X12915000Y-13555626D02*
X12924524Y-13565150D01*
X12924524Y-13565150D02*
X12934048Y-13584198D01*
X12934048Y-13584198D02*
X12943571Y-13622293D01*
X12943571Y-13622293D02*
X12943571Y-13669912D01*
X12943571Y-13669912D02*
X12934048Y-13708007D01*
X12934048Y-13708007D02*
X12924524Y-13727055D01*
X12924524Y-13727055D02*
X12915000Y-13736579D01*
X12915000Y-13736579D02*
X12895952Y-13746102D01*
X12895952Y-13746102D02*
X12876905Y-13746102D01*
X12876905Y-13746102D02*
X12857857Y-13736579D01*
X12857857Y-13736579D02*
X12848333Y-13727055D01*
X12848333Y-13727055D02*
X12838809Y-13708007D01*
X12838809Y-13708007D02*
X12829286Y-13669912D01*
X12829286Y-13669912D02*
X12829286Y-13622293D01*
X12829286Y-13622293D02*
X12838809Y-13584198D01*
X12838809Y-13584198D02*
X12848333Y-13565150D01*
X12848333Y-13565150D02*
X12857857Y-13555626D01*
X12857857Y-13555626D02*
X12876905Y-13546102D01*
X13067381Y-13546102D02*
X13086429Y-13546102D01*
X13086429Y-13546102D02*
X13105476Y-13555626D01*
X13105476Y-13555626D02*
X13115000Y-13565150D01*
X13115000Y-13565150D02*
X13124524Y-13584198D01*
X13124524Y-13584198D02*
X13134048Y-13622293D01*
X13134048Y-13622293D02*
X13134048Y-13669912D01*
X13134048Y-13669912D02*
X13124524Y-13708007D01*
X13124524Y-13708007D02*
X13115000Y-13727055D01*
X13115000Y-13727055D02*
X13105476Y-13736579D01*
X13105476Y-13736579D02*
X13086429Y-13746102D01*
X13086429Y-13746102D02*
X13067381Y-13746102D01*
X13067381Y-13746102D02*
X13048333Y-13736579D01*
X13048333Y-13736579D02*
X13038809Y-13727055D01*
X13038809Y-13727055D02*
X13029286Y-13708007D01*
X13029286Y-13708007D02*
X13019762Y-13669912D01*
X13019762Y-13669912D02*
X13019762Y-13622293D01*
X13019762Y-13622293D02*
X13029286Y-13584198D01*
X13029286Y-13584198D02*
X13038809Y-13565150D01*
X13038809Y-13565150D02*
X13048333Y-13555626D01*
X13048333Y-13555626D02*
X13067381Y-13546102D01*
X13219762Y-13746102D02*
X13219762Y-13612769D01*
X13219762Y-13631817D02*
X13229286Y-13622293D01*
X13229286Y-13622293D02*
X13248333Y-13612769D01*
X13248333Y-13612769D02*
X13276905Y-13612769D01*
X13276905Y-13612769D02*
X13295952Y-13622293D01*
X13295952Y-13622293D02*
X13305476Y-13641340D01*
X13305476Y-13641340D02*
X13305476Y-13746102D01*
X13305476Y-13641340D02*
X13315000Y-13622293D01*
X13315000Y-13622293D02*
X13334048Y-13612769D01*
X13334048Y-13612769D02*
X13362619Y-13612769D01*
X13362619Y-13612769D02*
X13381667Y-13622293D01*
X13381667Y-13622293D02*
X13391190Y-13641340D01*
X13391190Y-13641340D02*
X13391190Y-13746102D01*
X13486429Y-13746102D02*
X13486429Y-13612769D01*
X13486429Y-13631817D02*
X13495952Y-13622293D01*
X13495952Y-13622293D02*
X13515000Y-13612769D01*
X13515000Y-13612769D02*
X13543571Y-13612769D01*
X13543571Y-13612769D02*
X13562619Y-13622293D01*
X13562619Y-13622293D02*
X13572143Y-13641340D01*
X13572143Y-13641340D02*
X13572143Y-13746102D01*
X13572143Y-13641340D02*
X13581667Y-13622293D01*
X13581667Y-13622293D02*
X13600714Y-13612769D01*
X13600714Y-13612769D02*
X13629286Y-13612769D01*
X13629286Y-13612769D02*
X13648333Y-13622293D01*
X13648333Y-13622293D02*
X13657857Y-13641340D01*
X13657857Y-13641340D02*
X13657857Y-13746102D01*
X14048333Y-13536579D02*
X13876905Y-13793721D01*
X14305476Y-13546102D02*
X14324524Y-13546102D01*
X14324524Y-13546102D02*
X14343572Y-13555626D01*
X14343572Y-13555626D02*
X14353095Y-13565150D01*
X14353095Y-13565150D02*
X14362619Y-13584198D01*
X14362619Y-13584198D02*
X14372143Y-13622293D01*
X14372143Y-13622293D02*
X14372143Y-13669912D01*
X14372143Y-13669912D02*
X14362619Y-13708007D01*
X14362619Y-13708007D02*
X14353095Y-13727055D01*
X14353095Y-13727055D02*
X14343572Y-13736579D01*
X14343572Y-13736579D02*
X14324524Y-13746102D01*
X14324524Y-13746102D02*
X14305476Y-13746102D01*
X14305476Y-13746102D02*
X14286429Y-13736579D01*
X14286429Y-13736579D02*
X14276905Y-13727055D01*
X14276905Y-13727055D02*
X14267381Y-13708007D01*
X14267381Y-13708007D02*
X14257857Y-13669912D01*
X14257857Y-13669912D02*
X14257857Y-13622293D01*
X14257857Y-13622293D02*
X14267381Y-13584198D01*
X14267381Y-13584198D02*
X14276905Y-13565150D01*
X14276905Y-13565150D02*
X14286429Y-13555626D01*
X14286429Y-13555626D02*
X14305476Y-13546102D01*
X14457857Y-13727055D02*
X14467381Y-13736579D01*
X14467381Y-13736579D02*
X14457857Y-13746102D01*
X14457857Y-13746102D02*
X14448333Y-13736579D01*
X14448333Y-13736579D02*
X14457857Y-13727055D01*
X14457857Y-13727055D02*
X14457857Y-13746102D01*
X14591191Y-13546102D02*
X14610238Y-13546102D01*
X14610238Y-13546102D02*
X14629286Y-13555626D01*
X14629286Y-13555626D02*
X14638810Y-13565150D01*
X14638810Y-13565150D02*
X14648333Y-13584198D01*
X14648333Y-13584198D02*
X14657857Y-13622293D01*
X14657857Y-13622293D02*
X14657857Y-13669912D01*
X14657857Y-13669912D02*
X14648333Y-13708007D01*
X14648333Y-13708007D02*
X14638810Y-13727055D01*
X14638810Y-13727055D02*
X14629286Y-13736579D01*
X14629286Y-13736579D02*
X14610238Y-13746102D01*
X14610238Y-13746102D02*
X14591191Y-13746102D01*
X14591191Y-13746102D02*
X14572143Y-13736579D01*
X14572143Y-13736579D02*
X14562619Y-13727055D01*
X14562619Y-13727055D02*
X14553095Y-13708007D01*
X14553095Y-13708007D02*
X14543572Y-13669912D01*
X14543572Y-13669912D02*
X14543572Y-13622293D01*
X14543572Y-13622293D02*
X14553095Y-13584198D01*
X14553095Y-13584198D02*
X14562619Y-13565150D01*
X14562619Y-13565150D02*
X14572143Y-13555626D01*
X14572143Y-13555626D02*
X14591191Y-13546102D01*
X14848333Y-13746102D02*
X14734048Y-13746102D01*
X14791191Y-13746102D02*
X14791191Y-13546102D01*
X14791191Y-13546102D02*
X14772143Y-13574674D01*
X14772143Y-13574674D02*
X14753095Y-13593721D01*
X14753095Y-13593721D02*
X14734048Y-13603245D01*
X15029286Y-13546102D02*
X14934048Y-13546102D01*
X14934048Y-13546102D02*
X14924524Y-13641340D01*
X14924524Y-13641340D02*
X14934048Y-13631817D01*
X14934048Y-13631817D02*
X14953095Y-13622293D01*
X14953095Y-13622293D02*
X15000714Y-13622293D01*
X15000714Y-13622293D02*
X15019762Y-13631817D01*
X15019762Y-13631817D02*
X15029286Y-13641340D01*
X15029286Y-13641340D02*
X15038810Y-13660388D01*
X15038810Y-13660388D02*
X15038810Y-13708007D01*
X15038810Y-13708007D02*
X15029286Y-13727055D01*
X15029286Y-13727055D02*
X15019762Y-13736579D01*
X15019762Y-13736579D02*
X15000714Y-13746102D01*
X15000714Y-13746102D02*
X14953095Y-13746102D01*
X14953095Y-13746102D02*
X14934048Y-13736579D01*
X14934048Y-13736579D02*
X14924524Y-13727055D01*
X15105476Y-13546102D02*
X15238810Y-13546102D01*
X15238810Y-13546102D02*
X15153095Y-13746102D01*
X15305476Y-13546102D02*
X15305476Y-13584198D01*
X15381667Y-13546102D02*
X15381667Y-13584198D01*
X15676905Y-13822293D02*
X15667381Y-13812769D01*
X15667381Y-13812769D02*
X15648334Y-13784198D01*
X15648334Y-13784198D02*
X15638810Y-13765150D01*
X15638810Y-13765150D02*
X15629286Y-13736579D01*
X15629286Y-13736579D02*
X15619762Y-13688959D01*
X15619762Y-13688959D02*
X15619762Y-13650864D01*
X15619762Y-13650864D02*
X15629286Y-13603245D01*
X15629286Y-13603245D02*
X15638810Y-13574674D01*
X15638810Y-13574674D02*
X15648334Y-13555626D01*
X15648334Y-13555626D02*
X15667381Y-13527055D01*
X15667381Y-13527055D02*
X15676905Y-13517531D01*
X15743572Y-13565150D02*
X15753095Y-13555626D01*
X15753095Y-13555626D02*
X15772143Y-13546102D01*
X15772143Y-13546102D02*
X15819762Y-13546102D01*
X15819762Y-13546102D02*
X15838810Y-13555626D01*
X15838810Y-13555626D02*
X15848334Y-13565150D01*
X15848334Y-13565150D02*
X15857857Y-13584198D01*
X15857857Y-13584198D02*
X15857857Y-13603245D01*
X15857857Y-13603245D02*
X15848334Y-13631817D01*
X15848334Y-13631817D02*
X15734048Y-13746102D01*
X15734048Y-13746102D02*
X15857857Y-13746102D01*
X16095953Y-13746102D02*
X16095953Y-13546102D01*
X16181667Y-13746102D02*
X16181667Y-13641340D01*
X16181667Y-13641340D02*
X16172143Y-13622293D01*
X16172143Y-13622293D02*
X16153096Y-13612769D01*
X16153096Y-13612769D02*
X16124524Y-13612769D01*
X16124524Y-13612769D02*
X16105476Y-13622293D01*
X16105476Y-13622293D02*
X16095953Y-13631817D01*
X16305476Y-13746102D02*
X16286429Y-13736579D01*
X16286429Y-13736579D02*
X16276905Y-13727055D01*
X16276905Y-13727055D02*
X16267381Y-13708007D01*
X16267381Y-13708007D02*
X16267381Y-13650864D01*
X16267381Y-13650864D02*
X16276905Y-13631817D01*
X16276905Y-13631817D02*
X16286429Y-13622293D01*
X16286429Y-13622293D02*
X16305476Y-13612769D01*
X16305476Y-13612769D02*
X16334048Y-13612769D01*
X16334048Y-13612769D02*
X16353096Y-13622293D01*
X16353096Y-13622293D02*
X16362619Y-13631817D01*
X16362619Y-13631817D02*
X16372143Y-13650864D01*
X16372143Y-13650864D02*
X16372143Y-13708007D01*
X16372143Y-13708007D02*
X16362619Y-13727055D01*
X16362619Y-13727055D02*
X16353096Y-13736579D01*
X16353096Y-13736579D02*
X16334048Y-13746102D01*
X16334048Y-13746102D02*
X16305476Y-13746102D01*
X16486429Y-13746102D02*
X16467381Y-13736579D01*
X16467381Y-13736579D02*
X16457857Y-13717531D01*
X16457857Y-13717531D02*
X16457857Y-13546102D01*
X16638810Y-13736579D02*
X16619762Y-13746102D01*
X16619762Y-13746102D02*
X16581667Y-13746102D01*
X16581667Y-13746102D02*
X16562619Y-13736579D01*
X16562619Y-13736579D02*
X16553096Y-13717531D01*
X16553096Y-13717531D02*
X16553096Y-13641340D01*
X16553096Y-13641340D02*
X16562619Y-13622293D01*
X16562619Y-13622293D02*
X16581667Y-13612769D01*
X16581667Y-13612769D02*
X16619762Y-13612769D01*
X16619762Y-13612769D02*
X16638810Y-13622293D01*
X16638810Y-13622293D02*
X16648334Y-13641340D01*
X16648334Y-13641340D02*
X16648334Y-13660388D01*
X16648334Y-13660388D02*
X16553096Y-13679436D01*
X16724524Y-13736579D02*
X16743572Y-13746102D01*
X16743572Y-13746102D02*
X16781667Y-13746102D01*
X16781667Y-13746102D02*
X16800715Y-13736579D01*
X16800715Y-13736579D02*
X16810239Y-13717531D01*
X16810239Y-13717531D02*
X16810239Y-13708007D01*
X16810239Y-13708007D02*
X16800715Y-13688959D01*
X16800715Y-13688959D02*
X16781667Y-13679436D01*
X16781667Y-13679436D02*
X16753096Y-13679436D01*
X16753096Y-13679436D02*
X16734048Y-13669912D01*
X16734048Y-13669912D02*
X16724524Y-13650864D01*
X16724524Y-13650864D02*
X16724524Y-13641340D01*
X16724524Y-13641340D02*
X16734048Y-13622293D01*
X16734048Y-13622293D02*
X16753096Y-13612769D01*
X16753096Y-13612769D02*
X16781667Y-13612769D01*
X16781667Y-13612769D02*
X16800715Y-13622293D01*
X16876905Y-13822293D02*
X16886429Y-13812769D01*
X16886429Y-13812769D02*
X16905477Y-13784198D01*
X16905477Y-13784198D02*
X16915000Y-13765150D01*
X16915000Y-13765150D02*
X16924524Y-13736579D01*
X16924524Y-13736579D02*
X16934048Y-13688959D01*
X16934048Y-13688959D02*
X16934048Y-13650864D01*
X16934048Y-13650864D02*
X16924524Y-13603245D01*
X16924524Y-13603245D02*
X16915000Y-13574674D01*
X16915000Y-13574674D02*
X16905477Y-13555626D01*
X16905477Y-13555626D02*
X16886429Y-13527055D01*
X16886429Y-13527055D02*
X16876905Y-13517531D01*
D13*
X12115000Y-13917579D02*
G75*
G03*
X12115000Y-13917579I-59500J0D01*
G01*
D11*
X12467381Y-14010102D02*
X12353095Y-14010102D01*
X12410238Y-14010102D02*
X12410238Y-13810102D01*
X12410238Y-13810102D02*
X12391190Y-13838674D01*
X12391190Y-13838674D02*
X12372143Y-13857721D01*
X12372143Y-13857721D02*
X12353095Y-13867245D01*
X12553095Y-13991055D02*
X12562619Y-14000579D01*
X12562619Y-14000579D02*
X12553095Y-14010102D01*
X12553095Y-14010102D02*
X12543571Y-14000579D01*
X12543571Y-14000579D02*
X12553095Y-13991055D01*
X12553095Y-13991055D02*
X12553095Y-14010102D01*
X12753095Y-14010102D02*
X12638809Y-14010102D01*
X12695952Y-14010102D02*
X12695952Y-13810102D01*
X12695952Y-13810102D02*
X12676905Y-13838674D01*
X12676905Y-13838674D02*
X12657857Y-13857721D01*
X12657857Y-13857721D02*
X12638809Y-13867245D01*
X12848333Y-14010102D02*
X12886428Y-14010102D01*
X12886428Y-14010102D02*
X12905476Y-14000579D01*
X12905476Y-14000579D02*
X12915000Y-13991055D01*
X12915000Y-13991055D02*
X12934048Y-13962483D01*
X12934048Y-13962483D02*
X12943571Y-13924388D01*
X12943571Y-13924388D02*
X12943571Y-13848198D01*
X12943571Y-13848198D02*
X12934048Y-13829150D01*
X12934048Y-13829150D02*
X12924524Y-13819626D01*
X12924524Y-13819626D02*
X12905476Y-13810102D01*
X12905476Y-13810102D02*
X12867381Y-13810102D01*
X12867381Y-13810102D02*
X12848333Y-13819626D01*
X12848333Y-13819626D02*
X12838809Y-13829150D01*
X12838809Y-13829150D02*
X12829286Y-13848198D01*
X12829286Y-13848198D02*
X12829286Y-13895817D01*
X12829286Y-13895817D02*
X12838809Y-13914864D01*
X12838809Y-13914864D02*
X12848333Y-13924388D01*
X12848333Y-13924388D02*
X12867381Y-13933912D01*
X12867381Y-13933912D02*
X12905476Y-13933912D01*
X12905476Y-13933912D02*
X12924524Y-13924388D01*
X12924524Y-13924388D02*
X12934048Y-13914864D01*
X12934048Y-13914864D02*
X12943571Y-13895817D01*
X13067381Y-13810102D02*
X13086429Y-13810102D01*
X13086429Y-13810102D02*
X13105476Y-13819626D01*
X13105476Y-13819626D02*
X13115000Y-13829150D01*
X13115000Y-13829150D02*
X13124524Y-13848198D01*
X13124524Y-13848198D02*
X13134048Y-13886293D01*
X13134048Y-13886293D02*
X13134048Y-13933912D01*
X13134048Y-13933912D02*
X13124524Y-13972007D01*
X13124524Y-13972007D02*
X13115000Y-13991055D01*
X13115000Y-13991055D02*
X13105476Y-14000579D01*
X13105476Y-14000579D02*
X13086429Y-14010102D01*
X13086429Y-14010102D02*
X13067381Y-14010102D01*
X13067381Y-14010102D02*
X13048333Y-14000579D01*
X13048333Y-14000579D02*
X13038809Y-13991055D01*
X13038809Y-13991055D02*
X13029286Y-13972007D01*
X13029286Y-13972007D02*
X13019762Y-13933912D01*
X13019762Y-13933912D02*
X13019762Y-13886293D01*
X13019762Y-13886293D02*
X13029286Y-13848198D01*
X13029286Y-13848198D02*
X13038809Y-13829150D01*
X13038809Y-13829150D02*
X13048333Y-13819626D01*
X13048333Y-13819626D02*
X13067381Y-13810102D01*
X13219762Y-14010102D02*
X13219762Y-13876769D01*
X13219762Y-13895817D02*
X13229286Y-13886293D01*
X13229286Y-13886293D02*
X13248333Y-13876769D01*
X13248333Y-13876769D02*
X13276905Y-13876769D01*
X13276905Y-13876769D02*
X13295952Y-13886293D01*
X13295952Y-13886293D02*
X13305476Y-13905340D01*
X13305476Y-13905340D02*
X13305476Y-14010102D01*
X13305476Y-13905340D02*
X13315000Y-13886293D01*
X13315000Y-13886293D02*
X13334048Y-13876769D01*
X13334048Y-13876769D02*
X13362619Y-13876769D01*
X13362619Y-13876769D02*
X13381667Y-13886293D01*
X13381667Y-13886293D02*
X13391190Y-13905340D01*
X13391190Y-13905340D02*
X13391190Y-14010102D01*
X13486429Y-14010102D02*
X13486429Y-13876769D01*
X13486429Y-13895817D02*
X13495952Y-13886293D01*
X13495952Y-13886293D02*
X13515000Y-13876769D01*
X13515000Y-13876769D02*
X13543571Y-13876769D01*
X13543571Y-13876769D02*
X13562619Y-13886293D01*
X13562619Y-13886293D02*
X13572143Y-13905340D01*
X13572143Y-13905340D02*
X13572143Y-14010102D01*
X13572143Y-13905340D02*
X13581667Y-13886293D01*
X13581667Y-13886293D02*
X13600714Y-13876769D01*
X13600714Y-13876769D02*
X13629286Y-13876769D01*
X13629286Y-13876769D02*
X13648333Y-13886293D01*
X13648333Y-13886293D02*
X13657857Y-13905340D01*
X13657857Y-13905340D02*
X13657857Y-14010102D01*
X14048333Y-13800579D02*
X13876905Y-14057721D01*
X14305476Y-13810102D02*
X14324524Y-13810102D01*
X14324524Y-13810102D02*
X14343572Y-13819626D01*
X14343572Y-13819626D02*
X14353095Y-13829150D01*
X14353095Y-13829150D02*
X14362619Y-13848198D01*
X14362619Y-13848198D02*
X14372143Y-13886293D01*
X14372143Y-13886293D02*
X14372143Y-13933912D01*
X14372143Y-13933912D02*
X14362619Y-13972007D01*
X14362619Y-13972007D02*
X14353095Y-13991055D01*
X14353095Y-13991055D02*
X14343572Y-14000579D01*
X14343572Y-14000579D02*
X14324524Y-14010102D01*
X14324524Y-14010102D02*
X14305476Y-14010102D01*
X14305476Y-14010102D02*
X14286429Y-14000579D01*
X14286429Y-14000579D02*
X14276905Y-13991055D01*
X14276905Y-13991055D02*
X14267381Y-13972007D01*
X14267381Y-13972007D02*
X14257857Y-13933912D01*
X14257857Y-13933912D02*
X14257857Y-13886293D01*
X14257857Y-13886293D02*
X14267381Y-13848198D01*
X14267381Y-13848198D02*
X14276905Y-13829150D01*
X14276905Y-13829150D02*
X14286429Y-13819626D01*
X14286429Y-13819626D02*
X14305476Y-13810102D01*
X14457857Y-13991055D02*
X14467381Y-14000579D01*
X14467381Y-14000579D02*
X14457857Y-14010102D01*
X14457857Y-14010102D02*
X14448333Y-14000579D01*
X14448333Y-14000579D02*
X14457857Y-13991055D01*
X14457857Y-13991055D02*
X14457857Y-14010102D01*
X14591191Y-13810102D02*
X14610238Y-13810102D01*
X14610238Y-13810102D02*
X14629286Y-13819626D01*
X14629286Y-13819626D02*
X14638810Y-13829150D01*
X14638810Y-13829150D02*
X14648333Y-13848198D01*
X14648333Y-13848198D02*
X14657857Y-13886293D01*
X14657857Y-13886293D02*
X14657857Y-13933912D01*
X14657857Y-13933912D02*
X14648333Y-13972007D01*
X14648333Y-13972007D02*
X14638810Y-13991055D01*
X14638810Y-13991055D02*
X14629286Y-14000579D01*
X14629286Y-14000579D02*
X14610238Y-14010102D01*
X14610238Y-14010102D02*
X14591191Y-14010102D01*
X14591191Y-14010102D02*
X14572143Y-14000579D01*
X14572143Y-14000579D02*
X14562619Y-13991055D01*
X14562619Y-13991055D02*
X14553095Y-13972007D01*
X14553095Y-13972007D02*
X14543572Y-13933912D01*
X14543572Y-13933912D02*
X14543572Y-13886293D01*
X14543572Y-13886293D02*
X14553095Y-13848198D01*
X14553095Y-13848198D02*
X14562619Y-13829150D01*
X14562619Y-13829150D02*
X14572143Y-13819626D01*
X14572143Y-13819626D02*
X14591191Y-13810102D01*
X14829286Y-13876769D02*
X14829286Y-14010102D01*
X14781667Y-13800579D02*
X14734048Y-13943436D01*
X14734048Y-13943436D02*
X14857857Y-13943436D01*
X15019762Y-13810102D02*
X14981667Y-13810102D01*
X14981667Y-13810102D02*
X14962619Y-13819626D01*
X14962619Y-13819626D02*
X14953095Y-13829150D01*
X14953095Y-13829150D02*
X14934048Y-13857721D01*
X14934048Y-13857721D02*
X14924524Y-13895817D01*
X14924524Y-13895817D02*
X14924524Y-13972007D01*
X14924524Y-13972007D02*
X14934048Y-13991055D01*
X14934048Y-13991055D02*
X14943572Y-14000579D01*
X14943572Y-14000579D02*
X14962619Y-14010102D01*
X14962619Y-14010102D02*
X15000714Y-14010102D01*
X15000714Y-14010102D02*
X15019762Y-14000579D01*
X15019762Y-14000579D02*
X15029286Y-13991055D01*
X15029286Y-13991055D02*
X15038810Y-13972007D01*
X15038810Y-13972007D02*
X15038810Y-13924388D01*
X15038810Y-13924388D02*
X15029286Y-13905340D01*
X15029286Y-13905340D02*
X15019762Y-13895817D01*
X15019762Y-13895817D02*
X15000714Y-13886293D01*
X15000714Y-13886293D02*
X14962619Y-13886293D01*
X14962619Y-13886293D02*
X14943572Y-13895817D01*
X14943572Y-13895817D02*
X14934048Y-13905340D01*
X14934048Y-13905340D02*
X14924524Y-13924388D01*
X15134048Y-14010102D02*
X15172143Y-14010102D01*
X15172143Y-14010102D02*
X15191191Y-14000579D01*
X15191191Y-14000579D02*
X15200714Y-13991055D01*
X15200714Y-13991055D02*
X15219762Y-13962483D01*
X15219762Y-13962483D02*
X15229286Y-13924388D01*
X15229286Y-13924388D02*
X15229286Y-13848198D01*
X15229286Y-13848198D02*
X15219762Y-13829150D01*
X15219762Y-13829150D02*
X15210238Y-13819626D01*
X15210238Y-13819626D02*
X15191191Y-13810102D01*
X15191191Y-13810102D02*
X15153095Y-13810102D01*
X15153095Y-13810102D02*
X15134048Y-13819626D01*
X15134048Y-13819626D02*
X15124524Y-13829150D01*
X15124524Y-13829150D02*
X15115000Y-13848198D01*
X15115000Y-13848198D02*
X15115000Y-13895817D01*
X15115000Y-13895817D02*
X15124524Y-13914864D01*
X15124524Y-13914864D02*
X15134048Y-13924388D01*
X15134048Y-13924388D02*
X15153095Y-13933912D01*
X15153095Y-13933912D02*
X15191191Y-13933912D01*
X15191191Y-13933912D02*
X15210238Y-13924388D01*
X15210238Y-13924388D02*
X15219762Y-13914864D01*
X15219762Y-13914864D02*
X15229286Y-13895817D01*
X15305476Y-13810102D02*
X15305476Y-13848198D01*
X15381667Y-13810102D02*
X15381667Y-13848198D01*
X15676905Y-14086293D02*
X15667381Y-14076769D01*
X15667381Y-14076769D02*
X15648334Y-14048198D01*
X15648334Y-14048198D02*
X15638810Y-14029150D01*
X15638810Y-14029150D02*
X15629286Y-14000579D01*
X15629286Y-14000579D02*
X15619762Y-13952959D01*
X15619762Y-13952959D02*
X15619762Y-13914864D01*
X15619762Y-13914864D02*
X15629286Y-13867245D01*
X15629286Y-13867245D02*
X15638810Y-13838674D01*
X15638810Y-13838674D02*
X15648334Y-13819626D01*
X15648334Y-13819626D02*
X15667381Y-13791055D01*
X15667381Y-13791055D02*
X15676905Y-13781531D01*
X15743572Y-13829150D02*
X15753095Y-13819626D01*
X15753095Y-13819626D02*
X15772143Y-13810102D01*
X15772143Y-13810102D02*
X15819762Y-13810102D01*
X15819762Y-13810102D02*
X15838810Y-13819626D01*
X15838810Y-13819626D02*
X15848334Y-13829150D01*
X15848334Y-13829150D02*
X15857857Y-13848198D01*
X15857857Y-13848198D02*
X15857857Y-13867245D01*
X15857857Y-13867245D02*
X15848334Y-13895817D01*
X15848334Y-13895817D02*
X15734048Y-14010102D01*
X15734048Y-14010102D02*
X15857857Y-14010102D01*
X16095953Y-14010102D02*
X16095953Y-13810102D01*
X16181667Y-14010102D02*
X16181667Y-13905340D01*
X16181667Y-13905340D02*
X16172143Y-13886293D01*
X16172143Y-13886293D02*
X16153096Y-13876769D01*
X16153096Y-13876769D02*
X16124524Y-13876769D01*
X16124524Y-13876769D02*
X16105476Y-13886293D01*
X16105476Y-13886293D02*
X16095953Y-13895817D01*
X16305476Y-14010102D02*
X16286429Y-14000579D01*
X16286429Y-14000579D02*
X16276905Y-13991055D01*
X16276905Y-13991055D02*
X16267381Y-13972007D01*
X16267381Y-13972007D02*
X16267381Y-13914864D01*
X16267381Y-13914864D02*
X16276905Y-13895817D01*
X16276905Y-13895817D02*
X16286429Y-13886293D01*
X16286429Y-13886293D02*
X16305476Y-13876769D01*
X16305476Y-13876769D02*
X16334048Y-13876769D01*
X16334048Y-13876769D02*
X16353096Y-13886293D01*
X16353096Y-13886293D02*
X16362619Y-13895817D01*
X16362619Y-13895817D02*
X16372143Y-13914864D01*
X16372143Y-13914864D02*
X16372143Y-13972007D01*
X16372143Y-13972007D02*
X16362619Y-13991055D01*
X16362619Y-13991055D02*
X16353096Y-14000579D01*
X16353096Y-14000579D02*
X16334048Y-14010102D01*
X16334048Y-14010102D02*
X16305476Y-14010102D01*
X16486429Y-14010102D02*
X16467381Y-14000579D01*
X16467381Y-14000579D02*
X16457857Y-13981531D01*
X16457857Y-13981531D02*
X16457857Y-13810102D01*
X16638810Y-14000579D02*
X16619762Y-14010102D01*
X16619762Y-14010102D02*
X16581667Y-14010102D01*
X16581667Y-14010102D02*
X16562619Y-14000579D01*
X16562619Y-14000579D02*
X16553096Y-13981531D01*
X16553096Y-13981531D02*
X16553096Y-13905340D01*
X16553096Y-13905340D02*
X16562619Y-13886293D01*
X16562619Y-13886293D02*
X16581667Y-13876769D01*
X16581667Y-13876769D02*
X16619762Y-13876769D01*
X16619762Y-13876769D02*
X16638810Y-13886293D01*
X16638810Y-13886293D02*
X16648334Y-13905340D01*
X16648334Y-13905340D02*
X16648334Y-13924388D01*
X16648334Y-13924388D02*
X16553096Y-13943436D01*
X16724524Y-14000579D02*
X16743572Y-14010102D01*
X16743572Y-14010102D02*
X16781667Y-14010102D01*
X16781667Y-14010102D02*
X16800715Y-14000579D01*
X16800715Y-14000579D02*
X16810239Y-13981531D01*
X16810239Y-13981531D02*
X16810239Y-13972007D01*
X16810239Y-13972007D02*
X16800715Y-13952959D01*
X16800715Y-13952959D02*
X16781667Y-13943436D01*
X16781667Y-13943436D02*
X16753096Y-13943436D01*
X16753096Y-13943436D02*
X16734048Y-13933912D01*
X16734048Y-13933912D02*
X16724524Y-13914864D01*
X16724524Y-13914864D02*
X16724524Y-13905340D01*
X16724524Y-13905340D02*
X16734048Y-13886293D01*
X16734048Y-13886293D02*
X16753096Y-13876769D01*
X16753096Y-13876769D02*
X16781667Y-13876769D01*
X16781667Y-13876769D02*
X16800715Y-13886293D01*
X16876905Y-14086293D02*
X16886429Y-14076769D01*
X16886429Y-14076769D02*
X16905477Y-14048198D01*
X16905477Y-14048198D02*
X16915000Y-14029150D01*
X16915000Y-14029150D02*
X16924524Y-14000579D01*
X16924524Y-14000579D02*
X16934048Y-13952959D01*
X16934048Y-13952959D02*
X16934048Y-13914864D01*
X16934048Y-13914864D02*
X16924524Y-13867245D01*
X16924524Y-13867245D02*
X16915000Y-13838674D01*
X16915000Y-13838674D02*
X16905477Y-13819626D01*
X16905477Y-13819626D02*
X16886429Y-13791055D01*
X16886429Y-13791055D02*
X16876905Y-13781531D01*
M02*
