%TF.GenerationSoftware,KiCad,Pcbnew,7.0.1*%
%TF.CreationDate,2024-04-03T13:53:06+02:00*%
%TF.ProjectId,filament,66696c61-6d65-46e7-942e-6b696361645f,rev?*%
%TF.SameCoordinates,Original*%
%TF.FileFunction,Legend,Top*%
%TF.FilePolarity,Positive*%
%FSLAX46Y46*%
G04 Gerber Fmt 4.6, Leading zero omitted, Abs format (unit mm)*
G04 Created by KiCad (PCBNEW 7.0.1) date 2024-04-03 13:53:06*
%MOMM*%
%LPD*%
G01*
G04 APERTURE LIST*
%ADD10C,0.300000*%
%ADD11C,0.150000*%
%ADD12C,0.010000*%
%ADD13C,0.127000*%
G04 APERTURE END LIST*
D10*
X142257142Y-72986428D02*
X142257142Y-71486428D01*
X142257142Y-71486428D02*
X142828571Y-71486428D01*
X142828571Y-71486428D02*
X142971428Y-71557857D01*
X142971428Y-71557857D02*
X143042857Y-71629285D01*
X143042857Y-71629285D02*
X143114285Y-71772142D01*
X143114285Y-71772142D02*
X143114285Y-71986428D01*
X143114285Y-71986428D02*
X143042857Y-72129285D01*
X143042857Y-72129285D02*
X142971428Y-72200714D01*
X142971428Y-72200714D02*
X142828571Y-72272142D01*
X142828571Y-72272142D02*
X142257142Y-72272142D01*
X144328571Y-72915000D02*
X144185714Y-72986428D01*
X144185714Y-72986428D02*
X143900000Y-72986428D01*
X143900000Y-72986428D02*
X143757142Y-72915000D01*
X143757142Y-72915000D02*
X143685714Y-72772142D01*
X143685714Y-72772142D02*
X143685714Y-72200714D01*
X143685714Y-72200714D02*
X143757142Y-72057857D01*
X143757142Y-72057857D02*
X143900000Y-71986428D01*
X143900000Y-71986428D02*
X144185714Y-71986428D01*
X144185714Y-71986428D02*
X144328571Y-72057857D01*
X144328571Y-72057857D02*
X144400000Y-72200714D01*
X144400000Y-72200714D02*
X144400000Y-72343571D01*
X144400000Y-72343571D02*
X143685714Y-72486428D01*
X144828571Y-71986428D02*
X145399999Y-71986428D01*
X145042856Y-71486428D02*
X145042856Y-72772142D01*
X145042856Y-72772142D02*
X145114285Y-72915000D01*
X145114285Y-72915000D02*
X145257142Y-72986428D01*
X145257142Y-72986428D02*
X145399999Y-72986428D01*
X145899999Y-72986428D02*
X145899999Y-71986428D01*
X145899999Y-72272142D02*
X145971428Y-72129285D01*
X145971428Y-72129285D02*
X146042857Y-72057857D01*
X146042857Y-72057857D02*
X146185714Y-71986428D01*
X146185714Y-71986428D02*
X146328571Y-71986428D01*
X147042856Y-72986428D02*
X146899999Y-72915000D01*
X146899999Y-72915000D02*
X146828570Y-72843571D01*
X146828570Y-72843571D02*
X146757142Y-72700714D01*
X146757142Y-72700714D02*
X146757142Y-72272142D01*
X146757142Y-72272142D02*
X146828570Y-72129285D01*
X146828570Y-72129285D02*
X146899999Y-72057857D01*
X146899999Y-72057857D02*
X147042856Y-71986428D01*
X147042856Y-71986428D02*
X147257142Y-71986428D01*
X147257142Y-71986428D02*
X147399999Y-72057857D01*
X147399999Y-72057857D02*
X147471428Y-72129285D01*
X147471428Y-72129285D02*
X147542856Y-72272142D01*
X147542856Y-72272142D02*
X147542856Y-72700714D01*
X147542856Y-72700714D02*
X147471428Y-72843571D01*
X147471428Y-72843571D02*
X147399999Y-72915000D01*
X147399999Y-72915000D02*
X147257142Y-72986428D01*
X147257142Y-72986428D02*
X147042856Y-72986428D01*
X148899999Y-72986428D02*
X148185713Y-72986428D01*
X148185713Y-72986428D02*
X148185713Y-71486428D01*
X149399999Y-72200714D02*
X149899999Y-72200714D01*
X150114285Y-72986428D02*
X149399999Y-72986428D01*
X149399999Y-72986428D02*
X149399999Y-71486428D01*
X149399999Y-71486428D02*
X150114285Y-71486428D01*
X150757142Y-72986428D02*
X150757142Y-71486428D01*
X150757142Y-71486428D02*
X151114285Y-71486428D01*
X151114285Y-71486428D02*
X151328571Y-71557857D01*
X151328571Y-71557857D02*
X151471428Y-71700714D01*
X151471428Y-71700714D02*
X151542857Y-71843571D01*
X151542857Y-71843571D02*
X151614285Y-72129285D01*
X151614285Y-72129285D02*
X151614285Y-72343571D01*
X151614285Y-72343571D02*
X151542857Y-72629285D01*
X151542857Y-72629285D02*
X151471428Y-72772142D01*
X151471428Y-72772142D02*
X151328571Y-72915000D01*
X151328571Y-72915000D02*
X151114285Y-72986428D01*
X151114285Y-72986428D02*
X150757142Y-72986428D01*
X143114285Y-75416428D02*
X142614285Y-74702142D01*
X142257142Y-75416428D02*
X142257142Y-73916428D01*
X142257142Y-73916428D02*
X142828571Y-73916428D01*
X142828571Y-73916428D02*
X142971428Y-73987857D01*
X142971428Y-73987857D02*
X143042857Y-74059285D01*
X143042857Y-74059285D02*
X143114285Y-74202142D01*
X143114285Y-74202142D02*
X143114285Y-74416428D01*
X143114285Y-74416428D02*
X143042857Y-74559285D01*
X143042857Y-74559285D02*
X142971428Y-74630714D01*
X142971428Y-74630714D02*
X142828571Y-74702142D01*
X142828571Y-74702142D02*
X142257142Y-74702142D01*
X144328571Y-75345000D02*
X144185714Y-75416428D01*
X144185714Y-75416428D02*
X143900000Y-75416428D01*
X143900000Y-75416428D02*
X143757142Y-75345000D01*
X143757142Y-75345000D02*
X143685714Y-75202142D01*
X143685714Y-75202142D02*
X143685714Y-74630714D01*
X143685714Y-74630714D02*
X143757142Y-74487857D01*
X143757142Y-74487857D02*
X143900000Y-74416428D01*
X143900000Y-74416428D02*
X144185714Y-74416428D01*
X144185714Y-74416428D02*
X144328571Y-74487857D01*
X144328571Y-74487857D02*
X144400000Y-74630714D01*
X144400000Y-74630714D02*
X144400000Y-74773571D01*
X144400000Y-74773571D02*
X143685714Y-74916428D01*
X144899999Y-74416428D02*
X145257142Y-75416428D01*
X145257142Y-75416428D02*
X145614285Y-74416428D01*
X148114285Y-75416428D02*
X147257142Y-75416428D01*
X147685713Y-75416428D02*
X147685713Y-73916428D01*
X147685713Y-73916428D02*
X147542856Y-74130714D01*
X147542856Y-74130714D02*
X147399999Y-74273571D01*
X147399999Y-74273571D02*
X147257142Y-74345000D01*
X140771428Y-118513571D02*
X140628571Y-118442142D01*
X140628571Y-118442142D02*
X140342857Y-118442142D01*
X140342857Y-118442142D02*
X140200000Y-118513571D01*
X140200000Y-118513571D02*
X140057142Y-118656428D01*
X140057142Y-118656428D02*
X139985714Y-118799285D01*
X139985714Y-118799285D02*
X139985714Y-119085000D01*
X139985714Y-119085000D02*
X140057142Y-119227857D01*
X140057142Y-119227857D02*
X140200000Y-119370714D01*
X140200000Y-119370714D02*
X140342857Y-119442142D01*
X140342857Y-119442142D02*
X140628571Y-119442142D01*
X140628571Y-119442142D02*
X140771428Y-119370714D01*
X140485714Y-117942142D02*
X140128571Y-118013571D01*
X140128571Y-118013571D02*
X139771428Y-118227857D01*
X139771428Y-118227857D02*
X139557142Y-118585000D01*
X139557142Y-118585000D02*
X139485714Y-118942142D01*
X139485714Y-118942142D02*
X139557142Y-119299285D01*
X139557142Y-119299285D02*
X139771428Y-119656428D01*
X139771428Y-119656428D02*
X140128571Y-119870714D01*
X140128571Y-119870714D02*
X140485714Y-119942142D01*
X140485714Y-119942142D02*
X140842857Y-119870714D01*
X140842857Y-119870714D02*
X141200000Y-119656428D01*
X141200000Y-119656428D02*
X141414285Y-119299285D01*
X141414285Y-119299285D02*
X141485714Y-118942142D01*
X141485714Y-118942142D02*
X141414285Y-118585000D01*
X141414285Y-118585000D02*
X141200000Y-118227857D01*
X141200000Y-118227857D02*
X140842857Y-118013571D01*
X140842857Y-118013571D02*
X140485714Y-117942142D01*
X142057143Y-118299285D02*
X142128571Y-118227857D01*
X142128571Y-118227857D02*
X142271429Y-118156428D01*
X142271429Y-118156428D02*
X142628571Y-118156428D01*
X142628571Y-118156428D02*
X142771429Y-118227857D01*
X142771429Y-118227857D02*
X142842857Y-118299285D01*
X142842857Y-118299285D02*
X142914286Y-118442142D01*
X142914286Y-118442142D02*
X142914286Y-118585000D01*
X142914286Y-118585000D02*
X142842857Y-118799285D01*
X142842857Y-118799285D02*
X141985714Y-119656428D01*
X141985714Y-119656428D02*
X142914286Y-119656428D01*
X143842857Y-118156428D02*
X143985714Y-118156428D01*
X143985714Y-118156428D02*
X144128571Y-118227857D01*
X144128571Y-118227857D02*
X144200000Y-118299285D01*
X144200000Y-118299285D02*
X144271428Y-118442142D01*
X144271428Y-118442142D02*
X144342857Y-118727857D01*
X144342857Y-118727857D02*
X144342857Y-119085000D01*
X144342857Y-119085000D02*
X144271428Y-119370714D01*
X144271428Y-119370714D02*
X144200000Y-119513571D01*
X144200000Y-119513571D02*
X144128571Y-119585000D01*
X144128571Y-119585000D02*
X143985714Y-119656428D01*
X143985714Y-119656428D02*
X143842857Y-119656428D01*
X143842857Y-119656428D02*
X143700000Y-119585000D01*
X143700000Y-119585000D02*
X143628571Y-119513571D01*
X143628571Y-119513571D02*
X143557142Y-119370714D01*
X143557142Y-119370714D02*
X143485714Y-119085000D01*
X143485714Y-119085000D02*
X143485714Y-118727857D01*
X143485714Y-118727857D02*
X143557142Y-118442142D01*
X143557142Y-118442142D02*
X143628571Y-118299285D01*
X143628571Y-118299285D02*
X143700000Y-118227857D01*
X143700000Y-118227857D02*
X143842857Y-118156428D01*
X144914285Y-118299285D02*
X144985713Y-118227857D01*
X144985713Y-118227857D02*
X145128571Y-118156428D01*
X145128571Y-118156428D02*
X145485713Y-118156428D01*
X145485713Y-118156428D02*
X145628571Y-118227857D01*
X145628571Y-118227857D02*
X145699999Y-118299285D01*
X145699999Y-118299285D02*
X145771428Y-118442142D01*
X145771428Y-118442142D02*
X145771428Y-118585000D01*
X145771428Y-118585000D02*
X145699999Y-118799285D01*
X145699999Y-118799285D02*
X144842856Y-119656428D01*
X144842856Y-119656428D02*
X145771428Y-119656428D01*
X147057142Y-118656428D02*
X147057142Y-119656428D01*
X146699999Y-118085000D02*
X146342856Y-119156428D01*
X146342856Y-119156428D02*
X147271427Y-119156428D01*
X139557142Y-122086428D02*
X139557142Y-120586428D01*
X139557142Y-120586428D02*
X139914285Y-120586428D01*
X139914285Y-120586428D02*
X140128571Y-120657857D01*
X140128571Y-120657857D02*
X140271428Y-120800714D01*
X140271428Y-120800714D02*
X140342857Y-120943571D01*
X140342857Y-120943571D02*
X140414285Y-121229285D01*
X140414285Y-121229285D02*
X140414285Y-121443571D01*
X140414285Y-121443571D02*
X140342857Y-121729285D01*
X140342857Y-121729285D02*
X140271428Y-121872142D01*
X140271428Y-121872142D02*
X140128571Y-122015000D01*
X140128571Y-122015000D02*
X139914285Y-122086428D01*
X139914285Y-122086428D02*
X139557142Y-122086428D01*
X141057142Y-122086428D02*
X141057142Y-121086428D01*
X141057142Y-120586428D02*
X140985714Y-120657857D01*
X140985714Y-120657857D02*
X141057142Y-120729285D01*
X141057142Y-120729285D02*
X141128571Y-120657857D01*
X141128571Y-120657857D02*
X141057142Y-120586428D01*
X141057142Y-120586428D02*
X141057142Y-120729285D01*
X141771428Y-122086428D02*
X141771428Y-121086428D01*
X141771428Y-121372142D02*
X141842857Y-121229285D01*
X141842857Y-121229285D02*
X141914286Y-121157857D01*
X141914286Y-121157857D02*
X142057143Y-121086428D01*
X142057143Y-121086428D02*
X142200000Y-121086428D01*
X142699999Y-122086428D02*
X142699999Y-120586428D01*
X142842857Y-121515000D02*
X143271428Y-122086428D01*
X143271428Y-121086428D02*
X142699999Y-121657857D01*
X145057142Y-121300714D02*
X145557142Y-121300714D01*
X145771428Y-122086428D02*
X145057142Y-122086428D01*
X145057142Y-122086428D02*
X145057142Y-120586428D01*
X145057142Y-120586428D02*
X145771428Y-120586428D01*
X146414285Y-122086428D02*
X146414285Y-121086428D01*
X146414285Y-120586428D02*
X146342857Y-120657857D01*
X146342857Y-120657857D02*
X146414285Y-120729285D01*
X146414285Y-120729285D02*
X146485714Y-120657857D01*
X146485714Y-120657857D02*
X146414285Y-120586428D01*
X146414285Y-120586428D02*
X146414285Y-120729285D01*
X147128571Y-122086428D02*
X147128571Y-120586428D01*
X147128571Y-121157857D02*
X147271429Y-121086428D01*
X147271429Y-121086428D02*
X147557143Y-121086428D01*
X147557143Y-121086428D02*
X147700000Y-121157857D01*
X147700000Y-121157857D02*
X147771429Y-121229285D01*
X147771429Y-121229285D02*
X147842857Y-121372142D01*
X147842857Y-121372142D02*
X147842857Y-121800714D01*
X147842857Y-121800714D02*
X147771429Y-121943571D01*
X147771429Y-121943571D02*
X147700000Y-122015000D01*
X147700000Y-122015000D02*
X147557143Y-122086428D01*
X147557143Y-122086428D02*
X147271429Y-122086428D01*
X147271429Y-122086428D02*
X147128571Y-122015000D01*
X149128572Y-122086428D02*
X149128572Y-121300714D01*
X149128572Y-121300714D02*
X149057143Y-121157857D01*
X149057143Y-121157857D02*
X148914286Y-121086428D01*
X148914286Y-121086428D02*
X148628572Y-121086428D01*
X148628572Y-121086428D02*
X148485714Y-121157857D01*
X149128572Y-122015000D02*
X148985714Y-122086428D01*
X148985714Y-122086428D02*
X148628572Y-122086428D01*
X148628572Y-122086428D02*
X148485714Y-122015000D01*
X148485714Y-122015000D02*
X148414286Y-121872142D01*
X148414286Y-121872142D02*
X148414286Y-121729285D01*
X148414286Y-121729285D02*
X148485714Y-121586428D01*
X148485714Y-121586428D02*
X148628572Y-121515000D01*
X148628572Y-121515000D02*
X148985714Y-121515000D01*
X148985714Y-121515000D02*
X149128572Y-121443571D01*
X150485715Y-122015000D02*
X150342857Y-122086428D01*
X150342857Y-122086428D02*
X150057143Y-122086428D01*
X150057143Y-122086428D02*
X149914286Y-122015000D01*
X149914286Y-122015000D02*
X149842857Y-121943571D01*
X149842857Y-121943571D02*
X149771429Y-121800714D01*
X149771429Y-121800714D02*
X149771429Y-121372142D01*
X149771429Y-121372142D02*
X149842857Y-121229285D01*
X149842857Y-121229285D02*
X149914286Y-121157857D01*
X149914286Y-121157857D02*
X150057143Y-121086428D01*
X150057143Y-121086428D02*
X150342857Y-121086428D01*
X150342857Y-121086428D02*
X150485715Y-121157857D01*
X151128571Y-122086428D02*
X151128571Y-120586428D01*
X151771429Y-122086428D02*
X151771429Y-121300714D01*
X151771429Y-121300714D02*
X151700000Y-121157857D01*
X151700000Y-121157857D02*
X151557143Y-121086428D01*
X151557143Y-121086428D02*
X151342857Y-121086428D01*
X151342857Y-121086428D02*
X151200000Y-121157857D01*
X151200000Y-121157857D02*
X151128571Y-121229285D01*
X139414285Y-123516428D02*
X140200000Y-123516428D01*
X140200000Y-123516428D02*
X139414285Y-124516428D01*
X139414285Y-124516428D02*
X140200000Y-124516428D01*
X141342857Y-124445000D02*
X141200000Y-124516428D01*
X141200000Y-124516428D02*
X140914286Y-124516428D01*
X140914286Y-124516428D02*
X140771428Y-124445000D01*
X140771428Y-124445000D02*
X140700000Y-124302142D01*
X140700000Y-124302142D02*
X140700000Y-123730714D01*
X140700000Y-123730714D02*
X140771428Y-123587857D01*
X140771428Y-123587857D02*
X140914286Y-123516428D01*
X140914286Y-123516428D02*
X141200000Y-123516428D01*
X141200000Y-123516428D02*
X141342857Y-123587857D01*
X141342857Y-123587857D02*
X141414286Y-123730714D01*
X141414286Y-123730714D02*
X141414286Y-123873571D01*
X141414286Y-123873571D02*
X140700000Y-124016428D01*
X142057142Y-124516428D02*
X142057142Y-123516428D01*
X142057142Y-123802142D02*
X142128571Y-123659285D01*
X142128571Y-123659285D02*
X142200000Y-123587857D01*
X142200000Y-123587857D02*
X142342857Y-123516428D01*
X142342857Y-123516428D02*
X142485714Y-123516428D01*
X143199999Y-124516428D02*
X143057142Y-124445000D01*
X143057142Y-124445000D02*
X142985713Y-124373571D01*
X142985713Y-124373571D02*
X142914285Y-124230714D01*
X142914285Y-124230714D02*
X142914285Y-123802142D01*
X142914285Y-123802142D02*
X142985713Y-123659285D01*
X142985713Y-123659285D02*
X143057142Y-123587857D01*
X143057142Y-123587857D02*
X143199999Y-123516428D01*
X143199999Y-123516428D02*
X143414285Y-123516428D01*
X143414285Y-123516428D02*
X143557142Y-123587857D01*
X143557142Y-123587857D02*
X143628571Y-123659285D01*
X143628571Y-123659285D02*
X143699999Y-123802142D01*
X143699999Y-123802142D02*
X143699999Y-124230714D01*
X143699999Y-124230714D02*
X143628571Y-124373571D01*
X143628571Y-124373571D02*
X143557142Y-124445000D01*
X143557142Y-124445000D02*
X143414285Y-124516428D01*
X143414285Y-124516428D02*
X143199999Y-124516428D01*
X144342856Y-124516428D02*
X144342856Y-123516428D01*
X144342856Y-123659285D02*
X144414285Y-123587857D01*
X144414285Y-123587857D02*
X144557142Y-123516428D01*
X144557142Y-123516428D02*
X144771428Y-123516428D01*
X144771428Y-123516428D02*
X144914285Y-123587857D01*
X144914285Y-123587857D02*
X144985714Y-123730714D01*
X144985714Y-123730714D02*
X144985714Y-124516428D01*
X144985714Y-123730714D02*
X145057142Y-123587857D01*
X145057142Y-123587857D02*
X145199999Y-123516428D01*
X145199999Y-123516428D02*
X145414285Y-123516428D01*
X145414285Y-123516428D02*
X145557142Y-123587857D01*
X145557142Y-123587857D02*
X145628571Y-123730714D01*
X145628571Y-123730714D02*
X145628571Y-124516428D01*
X146342856Y-124516428D02*
X146342856Y-123516428D01*
X146342856Y-123016428D02*
X146271428Y-123087857D01*
X146271428Y-123087857D02*
X146342856Y-123159285D01*
X146342856Y-123159285D02*
X146414285Y-123087857D01*
X146414285Y-123087857D02*
X146342856Y-123016428D01*
X146342856Y-123016428D02*
X146342856Y-123159285D01*
X147057142Y-123516428D02*
X147057142Y-125016428D01*
X147057142Y-123587857D02*
X147200000Y-123516428D01*
X147200000Y-123516428D02*
X147485714Y-123516428D01*
X147485714Y-123516428D02*
X147628571Y-123587857D01*
X147628571Y-123587857D02*
X147700000Y-123659285D01*
X147700000Y-123659285D02*
X147771428Y-123802142D01*
X147771428Y-123802142D02*
X147771428Y-124230714D01*
X147771428Y-124230714D02*
X147700000Y-124373571D01*
X147700000Y-124373571D02*
X147628571Y-124445000D01*
X147628571Y-124445000D02*
X147485714Y-124516428D01*
X147485714Y-124516428D02*
X147200000Y-124516428D01*
X147200000Y-124516428D02*
X147057142Y-124445000D01*
X148342857Y-124445000D02*
X148485714Y-124516428D01*
X148485714Y-124516428D02*
X148771428Y-124516428D01*
X148771428Y-124516428D02*
X148914285Y-124445000D01*
X148914285Y-124445000D02*
X148985714Y-124302142D01*
X148985714Y-124302142D02*
X148985714Y-124230714D01*
X148985714Y-124230714D02*
X148914285Y-124087857D01*
X148914285Y-124087857D02*
X148771428Y-124016428D01*
X148771428Y-124016428D02*
X148557143Y-124016428D01*
X148557143Y-124016428D02*
X148414285Y-123945000D01*
X148414285Y-123945000D02*
X148342857Y-123802142D01*
X148342857Y-123802142D02*
X148342857Y-123730714D01*
X148342857Y-123730714D02*
X148414285Y-123587857D01*
X148414285Y-123587857D02*
X148557143Y-123516428D01*
X148557143Y-123516428D02*
X148771428Y-123516428D01*
X148771428Y-123516428D02*
X148914285Y-123587857D01*
X149628571Y-124373571D02*
X149700000Y-124445000D01*
X149700000Y-124445000D02*
X149628571Y-124516428D01*
X149628571Y-124516428D02*
X149557143Y-124445000D01*
X149557143Y-124445000D02*
X149628571Y-124373571D01*
X149628571Y-124373571D02*
X149628571Y-124516428D01*
X150557143Y-124516428D02*
X150414286Y-124445000D01*
X150414286Y-124445000D02*
X150342857Y-124373571D01*
X150342857Y-124373571D02*
X150271429Y-124230714D01*
X150271429Y-124230714D02*
X150271429Y-123802142D01*
X150271429Y-123802142D02*
X150342857Y-123659285D01*
X150342857Y-123659285D02*
X150414286Y-123587857D01*
X150414286Y-123587857D02*
X150557143Y-123516428D01*
X150557143Y-123516428D02*
X150771429Y-123516428D01*
X150771429Y-123516428D02*
X150914286Y-123587857D01*
X150914286Y-123587857D02*
X150985715Y-123659285D01*
X150985715Y-123659285D02*
X151057143Y-123802142D01*
X151057143Y-123802142D02*
X151057143Y-124230714D01*
X151057143Y-124230714D02*
X150985715Y-124373571D01*
X150985715Y-124373571D02*
X150914286Y-124445000D01*
X150914286Y-124445000D02*
X150771429Y-124516428D01*
X150771429Y-124516428D02*
X150557143Y-124516428D01*
X151700000Y-124516428D02*
X151700000Y-123516428D01*
X151700000Y-123802142D02*
X151771429Y-123659285D01*
X151771429Y-123659285D02*
X151842858Y-123587857D01*
X151842858Y-123587857D02*
X151985715Y-123516428D01*
X151985715Y-123516428D02*
X152128572Y-123516428D01*
X153271429Y-123516428D02*
X153271429Y-124730714D01*
X153271429Y-124730714D02*
X153200000Y-124873571D01*
X153200000Y-124873571D02*
X153128571Y-124945000D01*
X153128571Y-124945000D02*
X152985714Y-125016428D01*
X152985714Y-125016428D02*
X152771429Y-125016428D01*
X152771429Y-125016428D02*
X152628571Y-124945000D01*
X153271429Y-124445000D02*
X153128571Y-124516428D01*
X153128571Y-124516428D02*
X152842857Y-124516428D01*
X152842857Y-124516428D02*
X152700000Y-124445000D01*
X152700000Y-124445000D02*
X152628571Y-124373571D01*
X152628571Y-124373571D02*
X152557143Y-124230714D01*
X152557143Y-124230714D02*
X152557143Y-123802142D01*
X152557143Y-123802142D02*
X152628571Y-123659285D01*
X152628571Y-123659285D02*
X152700000Y-123587857D01*
X152700000Y-123587857D02*
X152842857Y-123516428D01*
X152842857Y-123516428D02*
X153128571Y-123516428D01*
X153128571Y-123516428D02*
X153271429Y-123587857D01*
D11*
%TO.C,BT1*%
X137958809Y-73455714D02*
X138006428Y-73312857D01*
X138006428Y-73312857D02*
X138054047Y-73265238D01*
X138054047Y-73265238D02*
X138149285Y-73217619D01*
X138149285Y-73217619D02*
X138292142Y-73217619D01*
X138292142Y-73217619D02*
X138387380Y-73265238D01*
X138387380Y-73265238D02*
X138435000Y-73312857D01*
X138435000Y-73312857D02*
X138482619Y-73408095D01*
X138482619Y-73408095D02*
X138482619Y-73789047D01*
X138482619Y-73789047D02*
X137482619Y-73789047D01*
X137482619Y-73789047D02*
X137482619Y-73455714D01*
X137482619Y-73455714D02*
X137530238Y-73360476D01*
X137530238Y-73360476D02*
X137577857Y-73312857D01*
X137577857Y-73312857D02*
X137673095Y-73265238D01*
X137673095Y-73265238D02*
X137768333Y-73265238D01*
X137768333Y-73265238D02*
X137863571Y-73312857D01*
X137863571Y-73312857D02*
X137911190Y-73360476D01*
X137911190Y-73360476D02*
X137958809Y-73455714D01*
X137958809Y-73455714D02*
X137958809Y-73789047D01*
X137482619Y-72931904D02*
X137482619Y-72360476D01*
X138482619Y-72646190D02*
X137482619Y-72646190D01*
X138482619Y-71503333D02*
X138482619Y-72074761D01*
X138482619Y-71789047D02*
X137482619Y-71789047D01*
X137482619Y-71789047D02*
X137625476Y-71884285D01*
X137625476Y-71884285D02*
X137720714Y-71979523D01*
X137720714Y-71979523D02*
X137768333Y-72074761D01*
%TO.C,REF\u002A\u002A*%
D12*
X152379833Y-80658663D02*
X152382048Y-80696850D01*
X152383784Y-80754886D01*
X152384899Y-80828180D01*
X152385257Y-80905055D01*
X152385257Y-81165196D01*
X152339326Y-81211127D01*
X152307675Y-81239429D01*
X152279890Y-81250893D01*
X152241915Y-81250168D01*
X152226840Y-81248321D01*
X152179726Y-81242948D01*
X152140756Y-81239869D01*
X152131257Y-81239585D01*
X152099233Y-81241445D01*
X152053432Y-81246114D01*
X152035674Y-81248321D01*
X151992057Y-81251735D01*
X151962745Y-81244320D01*
X151933680Y-81221427D01*
X151923188Y-81211127D01*
X151877257Y-81165196D01*
X151877257Y-80678602D01*
X151914226Y-80661758D01*
X151946059Y-80649282D01*
X151964683Y-80644914D01*
X151969458Y-80658718D01*
X151973921Y-80697286D01*
X151977775Y-80756356D01*
X151980722Y-80831663D01*
X151982143Y-80895286D01*
X151986114Y-81145657D01*
X152020759Y-81150556D01*
X152052268Y-81147131D01*
X152067708Y-81136041D01*
X152072023Y-81115308D01*
X152075708Y-81071145D01*
X152078469Y-81009146D01*
X152080012Y-80934909D01*
X152080235Y-80896706D01*
X152080457Y-80676783D01*
X152126166Y-80660849D01*
X152158518Y-80650015D01*
X152176115Y-80644962D01*
X152176623Y-80644914D01*
X152178388Y-80658648D01*
X152180329Y-80696730D01*
X152182282Y-80754482D01*
X152184084Y-80827227D01*
X152185343Y-80895286D01*
X152189314Y-81145657D01*
X152276400Y-81145657D01*
X152280396Y-80917240D01*
X152284392Y-80688822D01*
X152326847Y-80666868D01*
X152358192Y-80651793D01*
X152376744Y-80644951D01*
X152377279Y-80644914D01*
X152379833Y-80658663D01*
G36*
X152379833Y-80658663D02*
G01*
X152382048Y-80696850D01*
X152383784Y-80754886D01*
X152384899Y-80828180D01*
X152385257Y-80905055D01*
X152385257Y-81165196D01*
X152339326Y-81211127D01*
X152307675Y-81239429D01*
X152279890Y-81250893D01*
X152241915Y-81250168D01*
X152226840Y-81248321D01*
X152179726Y-81242948D01*
X152140756Y-81239869D01*
X152131257Y-81239585D01*
X152099233Y-81241445D01*
X152053432Y-81246114D01*
X152035674Y-81248321D01*
X151992057Y-81251735D01*
X151962745Y-81244320D01*
X151933680Y-81221427D01*
X151923188Y-81211127D01*
X151877257Y-81165196D01*
X151877257Y-80678602D01*
X151914226Y-80661758D01*
X151946059Y-80649282D01*
X151964683Y-80644914D01*
X151969458Y-80658718D01*
X151973921Y-80697286D01*
X151977775Y-80756356D01*
X151980722Y-80831663D01*
X151982143Y-80895286D01*
X151986114Y-81145657D01*
X152020759Y-81150556D01*
X152052268Y-81147131D01*
X152067708Y-81136041D01*
X152072023Y-81115308D01*
X152075708Y-81071145D01*
X152078469Y-81009146D01*
X152080012Y-80934909D01*
X152080235Y-80896706D01*
X152080457Y-80676783D01*
X152126166Y-80660849D01*
X152158518Y-80650015D01*
X152176115Y-80644962D01*
X152176623Y-80644914D01*
X152178388Y-80658648D01*
X152180329Y-80696730D01*
X152182282Y-80754482D01*
X152184084Y-80827227D01*
X152185343Y-80895286D01*
X152189314Y-81145657D01*
X152276400Y-81145657D01*
X152280396Y-80917240D01*
X152284392Y-80688822D01*
X152326847Y-80666868D01*
X152358192Y-80651793D01*
X152376744Y-80644951D01*
X152377279Y-80644914D01*
X152379833Y-80658663D01*
G37*
X147334322Y-80930192D02*
X147479429Y-80930192D01*
X147480273Y-80996430D01*
X147483596Y-81040386D01*
X147490583Y-81068779D01*
X147502416Y-81088325D01*
X147508457Y-81094857D01*
X147543186Y-81119680D01*
X147576903Y-81118548D01*
X147610995Y-81097016D01*
X147631329Y-81074029D01*
X147643371Y-81040478D01*
X147650134Y-80987569D01*
X147650598Y-80981399D01*
X147651752Y-80885513D01*
X147639688Y-80814299D01*
X147614570Y-80768194D01*
X147576560Y-80747635D01*
X147562992Y-80746514D01*
X147527364Y-80752152D01*
X147502994Y-80771686D01*
X147488093Y-80809042D01*
X147480875Y-80868150D01*
X147479429Y-80930192D01*
X147334322Y-80930192D01*
X147334826Y-80860413D01*
X147337096Y-80808159D01*
X147342068Y-80771949D01*
X147350713Y-80745299D01*
X147364005Y-80721722D01*
X147366943Y-80717338D01*
X147416313Y-80658249D01*
X147470109Y-80623947D01*
X147535602Y-80610331D01*
X147557842Y-80609665D01*
X147641115Y-80621962D01*
X147709145Y-80657733D01*
X147759351Y-80715301D01*
X147777185Y-80752312D01*
X147791063Y-80807882D01*
X147798167Y-80878096D01*
X147798840Y-80954727D01*
X147793427Y-81029552D01*
X147782270Y-81094342D01*
X147765714Y-81140873D01*
X147760626Y-81148887D01*
X147700355Y-81208707D01*
X147628769Y-81244535D01*
X147551092Y-81255020D01*
X147472548Y-81238810D01*
X147450689Y-81229092D01*
X147408122Y-81199143D01*
X147370763Y-81159433D01*
X147367232Y-81154397D01*
X147352881Y-81130124D01*
X147343394Y-81104178D01*
X147337790Y-81070022D01*
X147335086Y-81021119D01*
X147334299Y-80950935D01*
X147334286Y-80935200D01*
X147334322Y-80930192D01*
G36*
X147334322Y-80930192D02*
G01*
X147479429Y-80930192D01*
X147480273Y-80996430D01*
X147483596Y-81040386D01*
X147490583Y-81068779D01*
X147502416Y-81088325D01*
X147508457Y-81094857D01*
X147543186Y-81119680D01*
X147576903Y-81118548D01*
X147610995Y-81097016D01*
X147631329Y-81074029D01*
X147643371Y-81040478D01*
X147650134Y-80987569D01*
X147650598Y-80981399D01*
X147651752Y-80885513D01*
X147639688Y-80814299D01*
X147614570Y-80768194D01*
X147576560Y-80747635D01*
X147562992Y-80746514D01*
X147527364Y-80752152D01*
X147502994Y-80771686D01*
X147488093Y-80809042D01*
X147480875Y-80868150D01*
X147479429Y-80930192D01*
X147334322Y-80930192D01*
X147334826Y-80860413D01*
X147337096Y-80808159D01*
X147342068Y-80771949D01*
X147350713Y-80745299D01*
X147364005Y-80721722D01*
X147366943Y-80717338D01*
X147416313Y-80658249D01*
X147470109Y-80623947D01*
X147535602Y-80610331D01*
X147557842Y-80609665D01*
X147641115Y-80621962D01*
X147709145Y-80657733D01*
X147759351Y-80715301D01*
X147777185Y-80752312D01*
X147791063Y-80807882D01*
X147798167Y-80878096D01*
X147798840Y-80954727D01*
X147793427Y-81029552D01*
X147782270Y-81094342D01*
X147765714Y-81140873D01*
X147760626Y-81148887D01*
X147700355Y-81208707D01*
X147628769Y-81244535D01*
X147551092Y-81255020D01*
X147472548Y-81238810D01*
X147450689Y-81229092D01*
X147408122Y-81199143D01*
X147370763Y-81159433D01*
X147367232Y-81154397D01*
X147352881Y-81130124D01*
X147343394Y-81104178D01*
X147337790Y-81070022D01*
X147335086Y-81021119D01*
X147334299Y-80950935D01*
X147334286Y-80935200D01*
X147334322Y-80930192D01*
G37*
X153460372Y-80906247D02*
X153548007Y-80906247D01*
X153549023Y-80931126D01*
X153551556Y-80935200D01*
X153568274Y-80929665D01*
X153604249Y-80915017D01*
X153652331Y-80894190D01*
X153662386Y-80889714D01*
X153723152Y-80858814D01*
X153756632Y-80831657D01*
X153763990Y-80806220D01*
X153746391Y-80780481D01*
X153731856Y-80769109D01*
X153679410Y-80746364D01*
X153630322Y-80750122D01*
X153589227Y-80777884D01*
X153560758Y-80827152D01*
X153551631Y-80866257D01*
X153548007Y-80906247D01*
X153460372Y-80906247D01*
X153461285Y-80862249D01*
X153468196Y-80795384D01*
X153481884Y-80746695D01*
X153504096Y-80710849D01*
X153536574Y-80682513D01*
X153550733Y-80673355D01*
X153615053Y-80649507D01*
X153685473Y-80648006D01*
X153753595Y-80666966D01*
X153811021Y-80704497D01*
X153838719Y-80738096D01*
X153860662Y-80799064D01*
X153862405Y-80847308D01*
X153858457Y-80911816D01*
X153709686Y-80976934D01*
X153637349Y-81010202D01*
X153590084Y-81036964D01*
X153565507Y-81060144D01*
X153561237Y-81082667D01*
X153574889Y-81107455D01*
X153589943Y-81123886D01*
X153633746Y-81150235D01*
X153681389Y-81152081D01*
X153725145Y-81131546D01*
X153757289Y-81090752D01*
X153763038Y-81076347D01*
X153790576Y-81031356D01*
X153822258Y-81012182D01*
X153865714Y-80995779D01*
X153865714Y-81057966D01*
X153861872Y-81100283D01*
X153846823Y-81135969D01*
X153815280Y-81176943D01*
X153810592Y-81182267D01*
X153775506Y-81218720D01*
X153745347Y-81238283D01*
X153707615Y-81247283D01*
X153676335Y-81250230D01*
X153620385Y-81250965D01*
X153580555Y-81241660D01*
X153555708Y-81227846D01*
X153516656Y-81197467D01*
X153489625Y-81164613D01*
X153472517Y-81123294D01*
X153463238Y-81067521D01*
X153459693Y-80991305D01*
X153459410Y-80952622D01*
X153460372Y-80906247D01*
G36*
X153460372Y-80906247D02*
G01*
X153548007Y-80906247D01*
X153549023Y-80931126D01*
X153551556Y-80935200D01*
X153568274Y-80929665D01*
X153604249Y-80915017D01*
X153652331Y-80894190D01*
X153662386Y-80889714D01*
X153723152Y-80858814D01*
X153756632Y-80831657D01*
X153763990Y-80806220D01*
X153746391Y-80780481D01*
X153731856Y-80769109D01*
X153679410Y-80746364D01*
X153630322Y-80750122D01*
X153589227Y-80777884D01*
X153560758Y-80827152D01*
X153551631Y-80866257D01*
X153548007Y-80906247D01*
X153460372Y-80906247D01*
X153461285Y-80862249D01*
X153468196Y-80795384D01*
X153481884Y-80746695D01*
X153504096Y-80710849D01*
X153536574Y-80682513D01*
X153550733Y-80673355D01*
X153615053Y-80649507D01*
X153685473Y-80648006D01*
X153753595Y-80666966D01*
X153811021Y-80704497D01*
X153838719Y-80738096D01*
X153860662Y-80799064D01*
X153862405Y-80847308D01*
X153858457Y-80911816D01*
X153709686Y-80976934D01*
X153637349Y-81010202D01*
X153590084Y-81036964D01*
X153565507Y-81060144D01*
X153561237Y-81082667D01*
X153574889Y-81107455D01*
X153589943Y-81123886D01*
X153633746Y-81150235D01*
X153681389Y-81152081D01*
X153725145Y-81131546D01*
X153757289Y-81090752D01*
X153763038Y-81076347D01*
X153790576Y-81031356D01*
X153822258Y-81012182D01*
X153865714Y-80995779D01*
X153865714Y-81057966D01*
X153861872Y-81100283D01*
X153846823Y-81135969D01*
X153815280Y-81176943D01*
X153810592Y-81182267D01*
X153775506Y-81218720D01*
X153745347Y-81238283D01*
X153707615Y-81247283D01*
X153676335Y-81250230D01*
X153620385Y-81250965D01*
X153580555Y-81241660D01*
X153555708Y-81227846D01*
X153516656Y-81197467D01*
X153489625Y-81164613D01*
X153472517Y-81123294D01*
X153463238Y-81067521D01*
X153459693Y-80991305D01*
X153459410Y-80952622D01*
X153460372Y-80906247D01*
G37*
X149316093Y-80627780D02*
X149362672Y-80654723D01*
X149395057Y-80681466D01*
X149418742Y-80709484D01*
X149435059Y-80743748D01*
X149445339Y-80789227D01*
X149450914Y-80850892D01*
X149453116Y-80933711D01*
X149453371Y-80993246D01*
X149453371Y-81212391D01*
X149391686Y-81240044D01*
X149330000Y-81267697D01*
X149322743Y-81027670D01*
X149319744Y-80938028D01*
X149316598Y-80872962D01*
X149312701Y-80828026D01*
X149307447Y-80798770D01*
X149300231Y-80780748D01*
X149290450Y-80769511D01*
X149287312Y-80767079D01*
X149239761Y-80748083D01*
X149191697Y-80755600D01*
X149163086Y-80775543D01*
X149151447Y-80789675D01*
X149143391Y-80808220D01*
X149138271Y-80836334D01*
X149135441Y-80879173D01*
X149134256Y-80941895D01*
X149134057Y-81007261D01*
X149134018Y-81089268D01*
X149132614Y-81147316D01*
X149127914Y-81186465D01*
X149117987Y-81211780D01*
X149100903Y-81228323D01*
X149074732Y-81241156D01*
X149039775Y-81254491D01*
X149001596Y-81269007D01*
X149006141Y-81011389D01*
X149007971Y-80918519D01*
X149010112Y-80849889D01*
X149013181Y-80800711D01*
X149017794Y-80766198D01*
X149024568Y-80741562D01*
X149034119Y-80722016D01*
X149045634Y-80704770D01*
X149101190Y-80649680D01*
X149168980Y-80617822D01*
X149242713Y-80610191D01*
X149316093Y-80627780D01*
G36*
X149316093Y-80627780D02*
G01*
X149362672Y-80654723D01*
X149395057Y-80681466D01*
X149418742Y-80709484D01*
X149435059Y-80743748D01*
X149445339Y-80789227D01*
X149450914Y-80850892D01*
X149453116Y-80933711D01*
X149453371Y-80993246D01*
X149453371Y-81212391D01*
X149391686Y-81240044D01*
X149330000Y-81267697D01*
X149322743Y-81027670D01*
X149319744Y-80938028D01*
X149316598Y-80872962D01*
X149312701Y-80828026D01*
X149307447Y-80798770D01*
X149300231Y-80780748D01*
X149290450Y-80769511D01*
X149287312Y-80767079D01*
X149239761Y-80748083D01*
X149191697Y-80755600D01*
X149163086Y-80775543D01*
X149151447Y-80789675D01*
X149143391Y-80808220D01*
X149138271Y-80836334D01*
X149135441Y-80879173D01*
X149134256Y-80941895D01*
X149134057Y-81007261D01*
X149134018Y-81089268D01*
X149132614Y-81147316D01*
X149127914Y-81186465D01*
X149117987Y-81211780D01*
X149100903Y-81228323D01*
X149074732Y-81241156D01*
X149039775Y-81254491D01*
X149001596Y-81269007D01*
X149006141Y-81011389D01*
X149007971Y-80918519D01*
X149010112Y-80849889D01*
X149013181Y-80800711D01*
X149017794Y-80766198D01*
X149024568Y-80741562D01*
X149034119Y-80722016D01*
X149045634Y-80704770D01*
X149101190Y-80649680D01*
X149168980Y-80617822D01*
X149242713Y-80610191D01*
X149316093Y-80627780D01*
G37*
X153252600Y-80658752D02*
X153269948Y-80666334D01*
X153311356Y-80699128D01*
X153346765Y-80746547D01*
X153368664Y-80797151D01*
X153372229Y-80822098D01*
X153360279Y-80856927D01*
X153334067Y-80875357D01*
X153305964Y-80886516D01*
X153293095Y-80888572D01*
X153286829Y-80873649D01*
X153274456Y-80841175D01*
X153269028Y-80826502D01*
X153238590Y-80775744D01*
X153194520Y-80750427D01*
X153138010Y-80751206D01*
X153133825Y-80752203D01*
X153103655Y-80766507D01*
X153081476Y-80794393D01*
X153066327Y-80839287D01*
X153057250Y-80904615D01*
X153053286Y-80993804D01*
X153052914Y-81041261D01*
X153052730Y-81116071D01*
X153051522Y-81167069D01*
X153048309Y-81199471D01*
X153042109Y-81218495D01*
X153031940Y-81229356D01*
X153016819Y-81237272D01*
X153015946Y-81237670D01*
X152986828Y-81249981D01*
X152972403Y-81254514D01*
X152970186Y-81240809D01*
X152968289Y-81202925D01*
X152966847Y-81145715D01*
X152965998Y-81074027D01*
X152965829Y-81021565D01*
X152966692Y-80920047D01*
X152970070Y-80843032D01*
X152977142Y-80786023D01*
X152989088Y-80744526D01*
X153007090Y-80714043D01*
X153032327Y-80690080D01*
X153057247Y-80673355D01*
X153117171Y-80651097D01*
X153186911Y-80646076D01*
X153252600Y-80658752D01*
G36*
X153252600Y-80658752D02*
G01*
X153269948Y-80666334D01*
X153311356Y-80699128D01*
X153346765Y-80746547D01*
X153368664Y-80797151D01*
X153372229Y-80822098D01*
X153360279Y-80856927D01*
X153334067Y-80875357D01*
X153305964Y-80886516D01*
X153293095Y-80888572D01*
X153286829Y-80873649D01*
X153274456Y-80841175D01*
X153269028Y-80826502D01*
X153238590Y-80775744D01*
X153194520Y-80750427D01*
X153138010Y-80751206D01*
X153133825Y-80752203D01*
X153103655Y-80766507D01*
X153081476Y-80794393D01*
X153066327Y-80839287D01*
X153057250Y-80904615D01*
X153053286Y-80993804D01*
X153052914Y-81041261D01*
X153052730Y-81116071D01*
X153051522Y-81167069D01*
X153048309Y-81199471D01*
X153042109Y-81218495D01*
X153031940Y-81229356D01*
X153016819Y-81237272D01*
X153015946Y-81237670D01*
X152986828Y-81249981D01*
X152972403Y-81254514D01*
X152970186Y-81240809D01*
X152968289Y-81202925D01*
X152966847Y-81145715D01*
X152965998Y-81074027D01*
X152965829Y-81021565D01*
X152966692Y-80920047D01*
X152970070Y-80843032D01*
X152977142Y-80786023D01*
X152989088Y-80744526D01*
X153007090Y-80714043D01*
X153032327Y-80690080D01*
X153057247Y-80673355D01*
X153117171Y-80651097D01*
X153186911Y-80646076D01*
X153252600Y-80658752D01*
G37*
X151369458Y-80945647D02*
X151470857Y-80945647D01*
X151471476Y-81010550D01*
X151474314Y-81053514D01*
X151480840Y-81081622D01*
X151492523Y-81101953D01*
X151506483Y-81117288D01*
X151553365Y-81146890D01*
X151603701Y-81149419D01*
X151651276Y-81124705D01*
X151654979Y-81121356D01*
X151670783Y-81103935D01*
X151680693Y-81083209D01*
X151686058Y-81052362D01*
X151688228Y-81004577D01*
X151688571Y-80951748D01*
X151687827Y-80885381D01*
X151684748Y-80841106D01*
X151678061Y-80812009D01*
X151666496Y-80791173D01*
X151657013Y-80780107D01*
X151612960Y-80752198D01*
X151562224Y-80748843D01*
X151513796Y-80770159D01*
X151504450Y-80778073D01*
X151488540Y-80795647D01*
X151478610Y-80816587D01*
X151473278Y-80847782D01*
X151471163Y-80896122D01*
X151470857Y-80945647D01*
X151369458Y-80945647D01*
X151372810Y-80858568D01*
X151384726Y-80790086D01*
X151407135Y-80738600D01*
X151442124Y-80698443D01*
X151469375Y-80677861D01*
X151518907Y-80655625D01*
X151576316Y-80645304D01*
X151629682Y-80648067D01*
X151659543Y-80659212D01*
X151671261Y-80662383D01*
X151679037Y-80650557D01*
X151684465Y-80618866D01*
X151688571Y-80570593D01*
X151693067Y-80516829D01*
X151699313Y-80484482D01*
X151710676Y-80465985D01*
X151730528Y-80453770D01*
X151743000Y-80448362D01*
X151790171Y-80428601D01*
X151790117Y-80765358D01*
X151789933Y-80873837D01*
X151789219Y-80957287D01*
X151787675Y-81019704D01*
X151785001Y-81065085D01*
X151780894Y-81097429D01*
X151775055Y-81120733D01*
X151767182Y-81138995D01*
X151761221Y-81149418D01*
X151711855Y-81205945D01*
X151649264Y-81241377D01*
X151580013Y-81254090D01*
X151510668Y-81242463D01*
X151469375Y-81221568D01*
X151426025Y-81185422D01*
X151396481Y-81141276D01*
X151378655Y-81083462D01*
X151370463Y-81006313D01*
X151369302Y-80949714D01*
X151369458Y-80945647D01*
G36*
X151369458Y-80945647D02*
G01*
X151470857Y-80945647D01*
X151471476Y-81010550D01*
X151474314Y-81053514D01*
X151480840Y-81081622D01*
X151492523Y-81101953D01*
X151506483Y-81117288D01*
X151553365Y-81146890D01*
X151603701Y-81149419D01*
X151651276Y-81124705D01*
X151654979Y-81121356D01*
X151670783Y-81103935D01*
X151680693Y-81083209D01*
X151686058Y-81052362D01*
X151688228Y-81004577D01*
X151688571Y-80951748D01*
X151687827Y-80885381D01*
X151684748Y-80841106D01*
X151678061Y-80812009D01*
X151666496Y-80791173D01*
X151657013Y-80780107D01*
X151612960Y-80752198D01*
X151562224Y-80748843D01*
X151513796Y-80770159D01*
X151504450Y-80778073D01*
X151488540Y-80795647D01*
X151478610Y-80816587D01*
X151473278Y-80847782D01*
X151471163Y-80896122D01*
X151470857Y-80945647D01*
X151369458Y-80945647D01*
X151372810Y-80858568D01*
X151384726Y-80790086D01*
X151407135Y-80738600D01*
X151442124Y-80698443D01*
X151469375Y-80677861D01*
X151518907Y-80655625D01*
X151576316Y-80645304D01*
X151629682Y-80648067D01*
X151659543Y-80659212D01*
X151671261Y-80662383D01*
X151679037Y-80650557D01*
X151684465Y-80618866D01*
X151688571Y-80570593D01*
X151693067Y-80516829D01*
X151699313Y-80484482D01*
X151710676Y-80465985D01*
X151730528Y-80453770D01*
X151743000Y-80448362D01*
X151790171Y-80428601D01*
X151790117Y-80765358D01*
X151789933Y-80873837D01*
X151789219Y-80957287D01*
X151787675Y-81019704D01*
X151785001Y-81065085D01*
X151780894Y-81097429D01*
X151775055Y-81120733D01*
X151767182Y-81138995D01*
X151761221Y-81149418D01*
X151711855Y-81205945D01*
X151649264Y-81241377D01*
X151580013Y-81254090D01*
X151510668Y-81242463D01*
X151469375Y-81221568D01*
X151426025Y-81185422D01*
X151396481Y-81141276D01*
X151378655Y-81083462D01*
X151370463Y-81006313D01*
X151369302Y-80949714D01*
X151369458Y-80945647D01*
G37*
X149975886Y-80551289D02*
X149980139Y-80610613D01*
X149985025Y-80645572D01*
X149991795Y-80660820D01*
X150001702Y-80661015D01*
X150004914Y-80659195D01*
X150047644Y-80646015D01*
X150103227Y-80646785D01*
X150159737Y-80660333D01*
X150195082Y-80677861D01*
X150231321Y-80705861D01*
X150257813Y-80737549D01*
X150275999Y-80777813D01*
X150287322Y-80831543D01*
X150293222Y-80903626D01*
X150295143Y-80998951D01*
X150295177Y-81017237D01*
X150295200Y-81222646D01*
X150249491Y-81238580D01*
X150217027Y-81249420D01*
X150199215Y-81254468D01*
X150198691Y-81254514D01*
X150196937Y-81240828D01*
X150195444Y-81203076D01*
X150194326Y-81146224D01*
X150193697Y-81075234D01*
X150193600Y-81032073D01*
X150193398Y-80946973D01*
X150192358Y-80885981D01*
X150189831Y-80844177D01*
X150185164Y-80816642D01*
X150177707Y-80798456D01*
X150166811Y-80784698D01*
X150160007Y-80778073D01*
X150113272Y-80751375D01*
X150062272Y-80749375D01*
X150016001Y-80771955D01*
X150007444Y-80780107D01*
X149994893Y-80795436D01*
X149986188Y-80813618D01*
X149980631Y-80839909D01*
X149977526Y-80879562D01*
X149976176Y-80937832D01*
X149975886Y-81018173D01*
X149975886Y-81222646D01*
X149930177Y-81238580D01*
X149897713Y-81249420D01*
X149879901Y-81254468D01*
X149879377Y-81254514D01*
X149878037Y-81240623D01*
X149876828Y-81201439D01*
X149875801Y-81140700D01*
X149875002Y-81062141D01*
X149874481Y-80969498D01*
X149874286Y-80866509D01*
X149874286Y-80469342D01*
X149921457Y-80449444D01*
X149968629Y-80429547D01*
X149975886Y-80551289D01*
G36*
X149975886Y-80551289D02*
G01*
X149980139Y-80610613D01*
X149985025Y-80645572D01*
X149991795Y-80660820D01*
X150001702Y-80661015D01*
X150004914Y-80659195D01*
X150047644Y-80646015D01*
X150103227Y-80646785D01*
X150159737Y-80660333D01*
X150195082Y-80677861D01*
X150231321Y-80705861D01*
X150257813Y-80737549D01*
X150275999Y-80777813D01*
X150287322Y-80831543D01*
X150293222Y-80903626D01*
X150295143Y-80998951D01*
X150295177Y-81017237D01*
X150295200Y-81222646D01*
X150249491Y-81238580D01*
X150217027Y-81249420D01*
X150199215Y-81254468D01*
X150198691Y-81254514D01*
X150196937Y-81240828D01*
X150195444Y-81203076D01*
X150194326Y-81146224D01*
X150193697Y-81075234D01*
X150193600Y-81032073D01*
X150193398Y-80946973D01*
X150192358Y-80885981D01*
X150189831Y-80844177D01*
X150185164Y-80816642D01*
X150177707Y-80798456D01*
X150166811Y-80784698D01*
X150160007Y-80778073D01*
X150113272Y-80751375D01*
X150062272Y-80749375D01*
X150016001Y-80771955D01*
X150007444Y-80780107D01*
X149994893Y-80795436D01*
X149986188Y-80813618D01*
X149980631Y-80839909D01*
X149977526Y-80879562D01*
X149976176Y-80937832D01*
X149975886Y-81018173D01*
X149975886Y-81222646D01*
X149930177Y-81238580D01*
X149897713Y-81249420D01*
X149879901Y-81254468D01*
X149879377Y-81254514D01*
X149878037Y-81240623D01*
X149876828Y-81201439D01*
X149875801Y-81140700D01*
X149875002Y-81062141D01*
X149874481Y-80969498D01*
X149874286Y-80866509D01*
X149874286Y-80469342D01*
X149921457Y-80449444D01*
X149968629Y-80429547D01*
X149975886Y-80551289D01*
G37*
X150639744Y-80650968D02*
X150696616Y-80672087D01*
X150697267Y-80672493D01*
X150732440Y-80698380D01*
X150758407Y-80728633D01*
X150776670Y-80768058D01*
X150788732Y-80821462D01*
X150796096Y-80893651D01*
X150800264Y-80989432D01*
X150800629Y-81003078D01*
X150805876Y-81208842D01*
X150761716Y-81231678D01*
X150729763Y-81247110D01*
X150710470Y-81254423D01*
X150709578Y-81254514D01*
X150706239Y-81241022D01*
X150703587Y-81204626D01*
X150701956Y-81151452D01*
X150701600Y-81108393D01*
X150701592Y-81038641D01*
X150698403Y-80994837D01*
X150687288Y-80973944D01*
X150663501Y-80972925D01*
X150622296Y-80988741D01*
X150560086Y-81017815D01*
X150514341Y-81041963D01*
X150490813Y-81062913D01*
X150483896Y-81085747D01*
X150483886Y-81086877D01*
X150495299Y-81126212D01*
X150529092Y-81147462D01*
X150580809Y-81150539D01*
X150618061Y-81150006D01*
X150637703Y-81160735D01*
X150649952Y-81186505D01*
X150657002Y-81219337D01*
X150646842Y-81237966D01*
X150643017Y-81240632D01*
X150607001Y-81251340D01*
X150556566Y-81252856D01*
X150504626Y-81245759D01*
X150467822Y-81232788D01*
X150416938Y-81189585D01*
X150388014Y-81129446D01*
X150382286Y-81082462D01*
X150386657Y-81040082D01*
X150402475Y-81005488D01*
X150433797Y-80974763D01*
X150484678Y-80943990D01*
X150559176Y-80909252D01*
X150563714Y-80907288D01*
X150630821Y-80876287D01*
X150672232Y-80850862D01*
X150689981Y-80828014D01*
X150686107Y-80804745D01*
X150662643Y-80778056D01*
X150655627Y-80771914D01*
X150608630Y-80748100D01*
X150559933Y-80749103D01*
X150517522Y-80772451D01*
X150489384Y-80815675D01*
X150486769Y-80824160D01*
X150461308Y-80865308D01*
X150429001Y-80885128D01*
X150382286Y-80904770D01*
X150382286Y-80853950D01*
X150396496Y-80780082D01*
X150438675Y-80712327D01*
X150460624Y-80689661D01*
X150510517Y-80660569D01*
X150573967Y-80647400D01*
X150639744Y-80650968D01*
G36*
X150639744Y-80650968D02*
G01*
X150696616Y-80672087D01*
X150697267Y-80672493D01*
X150732440Y-80698380D01*
X150758407Y-80728633D01*
X150776670Y-80768058D01*
X150788732Y-80821462D01*
X150796096Y-80893651D01*
X150800264Y-80989432D01*
X150800629Y-81003078D01*
X150805876Y-81208842D01*
X150761716Y-81231678D01*
X150729763Y-81247110D01*
X150710470Y-81254423D01*
X150709578Y-81254514D01*
X150706239Y-81241022D01*
X150703587Y-81204626D01*
X150701956Y-81151452D01*
X150701600Y-81108393D01*
X150701592Y-81038641D01*
X150698403Y-80994837D01*
X150687288Y-80973944D01*
X150663501Y-80972925D01*
X150622296Y-80988741D01*
X150560086Y-81017815D01*
X150514341Y-81041963D01*
X150490813Y-81062913D01*
X150483896Y-81085747D01*
X150483886Y-81086877D01*
X150495299Y-81126212D01*
X150529092Y-81147462D01*
X150580809Y-81150539D01*
X150618061Y-81150006D01*
X150637703Y-81160735D01*
X150649952Y-81186505D01*
X150657002Y-81219337D01*
X150646842Y-81237966D01*
X150643017Y-81240632D01*
X150607001Y-81251340D01*
X150556566Y-81252856D01*
X150504626Y-81245759D01*
X150467822Y-81232788D01*
X150416938Y-81189585D01*
X150388014Y-81129446D01*
X150382286Y-81082462D01*
X150386657Y-81040082D01*
X150402475Y-81005488D01*
X150433797Y-80974763D01*
X150484678Y-80943990D01*
X150559176Y-80909252D01*
X150563714Y-80907288D01*
X150630821Y-80876287D01*
X150672232Y-80850862D01*
X150689981Y-80828014D01*
X150686107Y-80804745D01*
X150662643Y-80778056D01*
X150655627Y-80771914D01*
X150608630Y-80748100D01*
X150559933Y-80749103D01*
X150517522Y-80772451D01*
X150489384Y-80815675D01*
X150486769Y-80824160D01*
X150461308Y-80865308D01*
X150429001Y-80885128D01*
X150382286Y-80904770D01*
X150382286Y-80853950D01*
X150396496Y-80780082D01*
X150438675Y-80712327D01*
X150460624Y-80689661D01*
X150510517Y-80660569D01*
X150573967Y-80647400D01*
X150639744Y-80650968D01*
G37*
X150703910Y-75942348D02*
X150782454Y-75942778D01*
X150839298Y-75943942D01*
X150878105Y-75946207D01*
X150902538Y-75949940D01*
X150916262Y-75955506D01*
X150922940Y-75963273D01*
X150926236Y-75973605D01*
X150926556Y-75974943D01*
X150931562Y-75999079D01*
X150940829Y-76046701D01*
X150953392Y-76112741D01*
X150968287Y-76192128D01*
X150984551Y-76279796D01*
X150985119Y-76282875D01*
X151001410Y-76368789D01*
X151016652Y-76444696D01*
X151029861Y-76506045D01*
X151040054Y-76548282D01*
X151046248Y-76566855D01*
X151046543Y-76567184D01*
X151064788Y-76576253D01*
X151102405Y-76591367D01*
X151151271Y-76609262D01*
X151151543Y-76609358D01*
X151213093Y-76632493D01*
X151285657Y-76661965D01*
X151354057Y-76691597D01*
X151357294Y-76693062D01*
X151468702Y-76743626D01*
X151715399Y-76575160D01*
X151791077Y-76523803D01*
X151859631Y-76477889D01*
X151917088Y-76440030D01*
X151959476Y-76412837D01*
X151982825Y-76398921D01*
X151985042Y-76397889D01*
X152002010Y-76402484D01*
X152033701Y-76424655D01*
X152081352Y-76465447D01*
X152146198Y-76525905D01*
X152212397Y-76590227D01*
X152276214Y-76653612D01*
X152333329Y-76711451D01*
X152380305Y-76760175D01*
X152413703Y-76796210D01*
X152430085Y-76815984D01*
X152430694Y-76817002D01*
X152432505Y-76830572D01*
X152425683Y-76852733D01*
X152408540Y-76886478D01*
X152379393Y-76934800D01*
X152336555Y-77000692D01*
X152279448Y-77085517D01*
X152228766Y-77160177D01*
X152183461Y-77227140D01*
X152146150Y-77282516D01*
X152119452Y-77322420D01*
X152105985Y-77342962D01*
X152105137Y-77344356D01*
X152106781Y-77364038D01*
X152119245Y-77402293D01*
X152140048Y-77451889D01*
X152147462Y-77467728D01*
X152179814Y-77538290D01*
X152214328Y-77618353D01*
X152242365Y-77687629D01*
X152262568Y-77739045D01*
X152278615Y-77778119D01*
X152287888Y-77798541D01*
X152289041Y-77800114D01*
X152306096Y-77802721D01*
X152346298Y-77809863D01*
X152404302Y-77820523D01*
X152474763Y-77833685D01*
X152552335Y-77848333D01*
X152631672Y-77863449D01*
X152707431Y-77878018D01*
X152774264Y-77891022D01*
X152826828Y-77901445D01*
X152859776Y-77908270D01*
X152867857Y-77910199D01*
X152876205Y-77914962D01*
X152882506Y-77925718D01*
X152887045Y-77946098D01*
X152890104Y-77979734D01*
X152891967Y-78030255D01*
X152892918Y-78101292D01*
X152893240Y-78196476D01*
X152893257Y-78235492D01*
X152893257Y-78552799D01*
X152817057Y-78567839D01*
X152774663Y-78575995D01*
X152711400Y-78587899D01*
X152634962Y-78602116D01*
X152553043Y-78617210D01*
X152530400Y-78621355D01*
X152454806Y-78636053D01*
X152388953Y-78650505D01*
X152338366Y-78663375D01*
X152308574Y-78673322D01*
X152303612Y-78676287D01*
X152291426Y-78697283D01*
X152273953Y-78737967D01*
X152254577Y-78790322D01*
X152250734Y-78801600D01*
X152225339Y-78871523D01*
X152193817Y-78950418D01*
X152162969Y-79021266D01*
X152162817Y-79021595D01*
X152111447Y-79132733D01*
X152280399Y-79381253D01*
X152449352Y-79629772D01*
X152232429Y-79847058D01*
X152166819Y-79911726D01*
X152106979Y-79968733D01*
X152056267Y-80015033D01*
X152018046Y-80047584D01*
X151995675Y-80063343D01*
X151992466Y-80064343D01*
X151973626Y-80056469D01*
X151935180Y-80034578D01*
X151881330Y-80001267D01*
X151816276Y-79959131D01*
X151745940Y-79911943D01*
X151674555Y-79863810D01*
X151610908Y-79821928D01*
X151559041Y-79788871D01*
X151522995Y-79767218D01*
X151506867Y-79759543D01*
X151487189Y-79766037D01*
X151449875Y-79783150D01*
X151402621Y-79807326D01*
X151397612Y-79810013D01*
X151333977Y-79841927D01*
X151290341Y-79857579D01*
X151263202Y-79857745D01*
X151249057Y-79843204D01*
X151248975Y-79843000D01*
X151241905Y-79825779D01*
X151225042Y-79784899D01*
X151199695Y-79723525D01*
X151167171Y-79644819D01*
X151128778Y-79551947D01*
X151085822Y-79448072D01*
X151044222Y-79347502D01*
X150998504Y-79236516D01*
X150956526Y-79133703D01*
X150919548Y-79042215D01*
X150888827Y-78965201D01*
X150865622Y-78905815D01*
X150851190Y-78867209D01*
X150846743Y-78852800D01*
X150857896Y-78836272D01*
X150887069Y-78809930D01*
X150925971Y-78780887D01*
X151036757Y-78689039D01*
X151123351Y-78583759D01*
X151184716Y-78467266D01*
X151219815Y-78341776D01*
X151227608Y-78209507D01*
X151221943Y-78148457D01*
X151191078Y-78021795D01*
X151137920Y-77909941D01*
X151065767Y-77814001D01*
X150977917Y-77735076D01*
X150877665Y-77674270D01*
X150768310Y-77632687D01*
X150653147Y-77611428D01*
X150535475Y-77611599D01*
X150418590Y-77634301D01*
X150305789Y-77680638D01*
X150200369Y-77751713D01*
X150156368Y-77791911D01*
X150071979Y-77895129D01*
X150013222Y-78007925D01*
X149979704Y-78127010D01*
X149971035Y-78249095D01*
X149986823Y-78370893D01*
X150026678Y-78489116D01*
X150090207Y-78600475D01*
X150177021Y-78701684D01*
X150274029Y-78780887D01*
X150314437Y-78811162D01*
X150342982Y-78837219D01*
X150353257Y-78852825D01*
X150347877Y-78869843D01*
X150332575Y-78910500D01*
X150308612Y-78971642D01*
X150277244Y-79050119D01*
X150239732Y-79142780D01*
X150197333Y-79246472D01*
X150155663Y-79347526D01*
X150109690Y-79458607D01*
X150067107Y-79561541D01*
X150029221Y-79653165D01*
X149997340Y-79730316D01*
X149972771Y-79789831D01*
X149956820Y-79828544D01*
X149950910Y-79843000D01*
X149936948Y-79857685D01*
X149909940Y-79857642D01*
X149866413Y-79842099D01*
X149802890Y-79810284D01*
X149802388Y-79810013D01*
X149754560Y-79785323D01*
X149715897Y-79767338D01*
X149694095Y-79759614D01*
X149693133Y-79759543D01*
X149676721Y-79767378D01*
X149640487Y-79789165D01*
X149588474Y-79822328D01*
X149524725Y-79864291D01*
X149454060Y-79911943D01*
X149382116Y-79960191D01*
X149317274Y-80002151D01*
X149263735Y-80035227D01*
X149225697Y-80056821D01*
X149207533Y-80064343D01*
X149190808Y-80054457D01*
X149157180Y-80026826D01*
X149110010Y-79984495D01*
X149052658Y-79930505D01*
X148988484Y-79867899D01*
X148967497Y-79846983D01*
X148750499Y-79629623D01*
X148915668Y-79387220D01*
X148965864Y-79312781D01*
X149009919Y-79245972D01*
X149045362Y-79190665D01*
X149069719Y-79150729D01*
X149080522Y-79130036D01*
X149080838Y-79128563D01*
X149075143Y-79109058D01*
X149059826Y-79069822D01*
X149037537Y-79017430D01*
X149021893Y-78982355D01*
X148992641Y-78915201D01*
X148965094Y-78847358D01*
X148943737Y-78790034D01*
X148937935Y-78772572D01*
X148921452Y-78725938D01*
X148905340Y-78689905D01*
X148896490Y-78676287D01*
X148876960Y-78667952D01*
X148834334Y-78656137D01*
X148774145Y-78642181D01*
X148701922Y-78627422D01*
X148669600Y-78621355D01*
X148587522Y-78606273D01*
X148508795Y-78591669D01*
X148441109Y-78578980D01*
X148392160Y-78569642D01*
X148382943Y-78567839D01*
X148306743Y-78552799D01*
X148306743Y-78235492D01*
X148306914Y-78131154D01*
X148307616Y-78052213D01*
X148309134Y-77995038D01*
X148311749Y-77955999D01*
X148315746Y-77931465D01*
X148321409Y-77917805D01*
X148329020Y-77911389D01*
X148332143Y-77910199D01*
X148350978Y-77905980D01*
X148392588Y-77897562D01*
X148451630Y-77885961D01*
X148522757Y-77872195D01*
X148600625Y-77857280D01*
X148679887Y-77842232D01*
X148755198Y-77828069D01*
X148821213Y-77815806D01*
X148872587Y-77806461D01*
X148903975Y-77801050D01*
X148910959Y-77800114D01*
X148917285Y-77787596D01*
X148931290Y-77754246D01*
X148950355Y-77706377D01*
X148957634Y-77687629D01*
X148986996Y-77615195D01*
X149021571Y-77535170D01*
X149052537Y-77467728D01*
X149075323Y-77416159D01*
X149090482Y-77373785D01*
X149095542Y-77347834D01*
X149094736Y-77344356D01*
X149084041Y-77327936D01*
X149059620Y-77291417D01*
X149024095Y-77238687D01*
X148980087Y-77173635D01*
X148930217Y-77100151D01*
X148920356Y-77085645D01*
X148862492Y-76999704D01*
X148819956Y-76934261D01*
X148791054Y-76886304D01*
X148774090Y-76852820D01*
X148767367Y-76830795D01*
X148769190Y-76817217D01*
X148769236Y-76817131D01*
X148783586Y-76799297D01*
X148815323Y-76764817D01*
X148861010Y-76717268D01*
X148917204Y-76660222D01*
X148980468Y-76597255D01*
X148987602Y-76590227D01*
X149067330Y-76513020D01*
X149128857Y-76456330D01*
X149173421Y-76419110D01*
X149202257Y-76400315D01*
X149214958Y-76397889D01*
X149233494Y-76408471D01*
X149271961Y-76432916D01*
X149326386Y-76468612D01*
X149392798Y-76512947D01*
X149467225Y-76563311D01*
X149484601Y-76575160D01*
X149731297Y-76743626D01*
X149842706Y-76693062D01*
X149910457Y-76663595D01*
X149983183Y-76633959D01*
X150045703Y-76610330D01*
X150048457Y-76609358D01*
X150097360Y-76591457D01*
X150135057Y-76576320D01*
X150153425Y-76567210D01*
X150153456Y-76567184D01*
X150159285Y-76550717D01*
X150169192Y-76510219D01*
X150182195Y-76450242D01*
X150197309Y-76375340D01*
X150213552Y-76290064D01*
X150214881Y-76282875D01*
X150231175Y-76195014D01*
X150246133Y-76115260D01*
X150258791Y-76048681D01*
X150268186Y-76000347D01*
X150273354Y-75975325D01*
X150273444Y-75974943D01*
X150276589Y-75964299D01*
X150282704Y-75956262D01*
X150295453Y-75950467D01*
X150318500Y-75946547D01*
X150355509Y-75944135D01*
X150410144Y-75942865D01*
X150486067Y-75942371D01*
X150586944Y-75942286D01*
X150600000Y-75942286D01*
X150703910Y-75942348D01*
G36*
X150703910Y-75942348D02*
G01*
X150782454Y-75942778D01*
X150839298Y-75943942D01*
X150878105Y-75946207D01*
X150902538Y-75949940D01*
X150916262Y-75955506D01*
X150922940Y-75963273D01*
X150926236Y-75973605D01*
X150926556Y-75974943D01*
X150931562Y-75999079D01*
X150940829Y-76046701D01*
X150953392Y-76112741D01*
X150968287Y-76192128D01*
X150984551Y-76279796D01*
X150985119Y-76282875D01*
X151001410Y-76368789D01*
X151016652Y-76444696D01*
X151029861Y-76506045D01*
X151040054Y-76548282D01*
X151046248Y-76566855D01*
X151046543Y-76567184D01*
X151064788Y-76576253D01*
X151102405Y-76591367D01*
X151151271Y-76609262D01*
X151151543Y-76609358D01*
X151213093Y-76632493D01*
X151285657Y-76661965D01*
X151354057Y-76691597D01*
X151357294Y-76693062D01*
X151468702Y-76743626D01*
X151715399Y-76575160D01*
X151791077Y-76523803D01*
X151859631Y-76477889D01*
X151917088Y-76440030D01*
X151959476Y-76412837D01*
X151982825Y-76398921D01*
X151985042Y-76397889D01*
X152002010Y-76402484D01*
X152033701Y-76424655D01*
X152081352Y-76465447D01*
X152146198Y-76525905D01*
X152212397Y-76590227D01*
X152276214Y-76653612D01*
X152333329Y-76711451D01*
X152380305Y-76760175D01*
X152413703Y-76796210D01*
X152430085Y-76815984D01*
X152430694Y-76817002D01*
X152432505Y-76830572D01*
X152425683Y-76852733D01*
X152408540Y-76886478D01*
X152379393Y-76934800D01*
X152336555Y-77000692D01*
X152279448Y-77085517D01*
X152228766Y-77160177D01*
X152183461Y-77227140D01*
X152146150Y-77282516D01*
X152119452Y-77322420D01*
X152105985Y-77342962D01*
X152105137Y-77344356D01*
X152106781Y-77364038D01*
X152119245Y-77402293D01*
X152140048Y-77451889D01*
X152147462Y-77467728D01*
X152179814Y-77538290D01*
X152214328Y-77618353D01*
X152242365Y-77687629D01*
X152262568Y-77739045D01*
X152278615Y-77778119D01*
X152287888Y-77798541D01*
X152289041Y-77800114D01*
X152306096Y-77802721D01*
X152346298Y-77809863D01*
X152404302Y-77820523D01*
X152474763Y-77833685D01*
X152552335Y-77848333D01*
X152631672Y-77863449D01*
X152707431Y-77878018D01*
X152774264Y-77891022D01*
X152826828Y-77901445D01*
X152859776Y-77908270D01*
X152867857Y-77910199D01*
X152876205Y-77914962D01*
X152882506Y-77925718D01*
X152887045Y-77946098D01*
X152890104Y-77979734D01*
X152891967Y-78030255D01*
X152892918Y-78101292D01*
X152893240Y-78196476D01*
X152893257Y-78235492D01*
X152893257Y-78552799D01*
X152817057Y-78567839D01*
X152774663Y-78575995D01*
X152711400Y-78587899D01*
X152634962Y-78602116D01*
X152553043Y-78617210D01*
X152530400Y-78621355D01*
X152454806Y-78636053D01*
X152388953Y-78650505D01*
X152338366Y-78663375D01*
X152308574Y-78673322D01*
X152303612Y-78676287D01*
X152291426Y-78697283D01*
X152273953Y-78737967D01*
X152254577Y-78790322D01*
X152250734Y-78801600D01*
X152225339Y-78871523D01*
X152193817Y-78950418D01*
X152162969Y-79021266D01*
X152162817Y-79021595D01*
X152111447Y-79132733D01*
X152280399Y-79381253D01*
X152449352Y-79629772D01*
X152232429Y-79847058D01*
X152166819Y-79911726D01*
X152106979Y-79968733D01*
X152056267Y-80015033D01*
X152018046Y-80047584D01*
X151995675Y-80063343D01*
X151992466Y-80064343D01*
X151973626Y-80056469D01*
X151935180Y-80034578D01*
X151881330Y-80001267D01*
X151816276Y-79959131D01*
X151745940Y-79911943D01*
X151674555Y-79863810D01*
X151610908Y-79821928D01*
X151559041Y-79788871D01*
X151522995Y-79767218D01*
X151506867Y-79759543D01*
X151487189Y-79766037D01*
X151449875Y-79783150D01*
X151402621Y-79807326D01*
X151397612Y-79810013D01*
X151333977Y-79841927D01*
X151290341Y-79857579D01*
X151263202Y-79857745D01*
X151249057Y-79843204D01*
X151248975Y-79843000D01*
X151241905Y-79825779D01*
X151225042Y-79784899D01*
X151199695Y-79723525D01*
X151167171Y-79644819D01*
X151128778Y-79551947D01*
X151085822Y-79448072D01*
X151044222Y-79347502D01*
X150998504Y-79236516D01*
X150956526Y-79133703D01*
X150919548Y-79042215D01*
X150888827Y-78965201D01*
X150865622Y-78905815D01*
X150851190Y-78867209D01*
X150846743Y-78852800D01*
X150857896Y-78836272D01*
X150887069Y-78809930D01*
X150925971Y-78780887D01*
X151036757Y-78689039D01*
X151123351Y-78583759D01*
X151184716Y-78467266D01*
X151219815Y-78341776D01*
X151227608Y-78209507D01*
X151221943Y-78148457D01*
X151191078Y-78021795D01*
X151137920Y-77909941D01*
X151065767Y-77814001D01*
X150977917Y-77735076D01*
X150877665Y-77674270D01*
X150768310Y-77632687D01*
X150653147Y-77611428D01*
X150535475Y-77611599D01*
X150418590Y-77634301D01*
X150305789Y-77680638D01*
X150200369Y-77751713D01*
X150156368Y-77791911D01*
X150071979Y-77895129D01*
X150013222Y-78007925D01*
X149979704Y-78127010D01*
X149971035Y-78249095D01*
X149986823Y-78370893D01*
X150026678Y-78489116D01*
X150090207Y-78600475D01*
X150177021Y-78701684D01*
X150274029Y-78780887D01*
X150314437Y-78811162D01*
X150342982Y-78837219D01*
X150353257Y-78852825D01*
X150347877Y-78869843D01*
X150332575Y-78910500D01*
X150308612Y-78971642D01*
X150277244Y-79050119D01*
X150239732Y-79142780D01*
X150197333Y-79246472D01*
X150155663Y-79347526D01*
X150109690Y-79458607D01*
X150067107Y-79561541D01*
X150029221Y-79653165D01*
X149997340Y-79730316D01*
X149972771Y-79789831D01*
X149956820Y-79828544D01*
X149950910Y-79843000D01*
X149936948Y-79857685D01*
X149909940Y-79857642D01*
X149866413Y-79842099D01*
X149802890Y-79810284D01*
X149802388Y-79810013D01*
X149754560Y-79785323D01*
X149715897Y-79767338D01*
X149694095Y-79759614D01*
X149693133Y-79759543D01*
X149676721Y-79767378D01*
X149640487Y-79789165D01*
X149588474Y-79822328D01*
X149524725Y-79864291D01*
X149454060Y-79911943D01*
X149382116Y-79960191D01*
X149317274Y-80002151D01*
X149263735Y-80035227D01*
X149225697Y-80056821D01*
X149207533Y-80064343D01*
X149190808Y-80054457D01*
X149157180Y-80026826D01*
X149110010Y-79984495D01*
X149052658Y-79930505D01*
X148988484Y-79867899D01*
X148967497Y-79846983D01*
X148750499Y-79629623D01*
X148915668Y-79387220D01*
X148965864Y-79312781D01*
X149009919Y-79245972D01*
X149045362Y-79190665D01*
X149069719Y-79150729D01*
X149080522Y-79130036D01*
X149080838Y-79128563D01*
X149075143Y-79109058D01*
X149059826Y-79069822D01*
X149037537Y-79017430D01*
X149021893Y-78982355D01*
X148992641Y-78915201D01*
X148965094Y-78847358D01*
X148943737Y-78790034D01*
X148937935Y-78772572D01*
X148921452Y-78725938D01*
X148905340Y-78689905D01*
X148896490Y-78676287D01*
X148876960Y-78667952D01*
X148834334Y-78656137D01*
X148774145Y-78642181D01*
X148701922Y-78627422D01*
X148669600Y-78621355D01*
X148587522Y-78606273D01*
X148508795Y-78591669D01*
X148441109Y-78578980D01*
X148392160Y-78569642D01*
X148382943Y-78567839D01*
X148306743Y-78552799D01*
X148306743Y-78235492D01*
X148306914Y-78131154D01*
X148307616Y-78052213D01*
X148309134Y-77995038D01*
X148311749Y-77955999D01*
X148315746Y-77931465D01*
X148321409Y-77917805D01*
X148329020Y-77911389D01*
X148332143Y-77910199D01*
X148350978Y-77905980D01*
X148392588Y-77897562D01*
X148451630Y-77885961D01*
X148522757Y-77872195D01*
X148600625Y-77857280D01*
X148679887Y-77842232D01*
X148755198Y-77828069D01*
X148821213Y-77815806D01*
X148872587Y-77806461D01*
X148903975Y-77801050D01*
X148910959Y-77800114D01*
X148917285Y-77787596D01*
X148931290Y-77754246D01*
X148950355Y-77706377D01*
X148957634Y-77687629D01*
X148986996Y-77615195D01*
X149021571Y-77535170D01*
X149052537Y-77467728D01*
X149075323Y-77416159D01*
X149090482Y-77373785D01*
X149095542Y-77347834D01*
X149094736Y-77344356D01*
X149084041Y-77327936D01*
X149059620Y-77291417D01*
X149024095Y-77238687D01*
X148980087Y-77173635D01*
X148930217Y-77100151D01*
X148920356Y-77085645D01*
X148862492Y-76999704D01*
X148819956Y-76934261D01*
X148791054Y-76886304D01*
X148774090Y-76852820D01*
X148767367Y-76830795D01*
X148769190Y-76817217D01*
X148769236Y-76817131D01*
X148783586Y-76799297D01*
X148815323Y-76764817D01*
X148861010Y-76717268D01*
X148917204Y-76660222D01*
X148980468Y-76597255D01*
X148987602Y-76590227D01*
X149067330Y-76513020D01*
X149128857Y-76456330D01*
X149173421Y-76419110D01*
X149202257Y-76400315D01*
X149214958Y-76397889D01*
X149233494Y-76408471D01*
X149271961Y-76432916D01*
X149326386Y-76468612D01*
X149392798Y-76512947D01*
X149467225Y-76563311D01*
X149484601Y-76575160D01*
X149731297Y-76743626D01*
X149842706Y-76693062D01*
X149910457Y-76663595D01*
X149983183Y-76633959D01*
X150045703Y-76610330D01*
X150048457Y-76609358D01*
X150097360Y-76591457D01*
X150135057Y-76576320D01*
X150153425Y-76567210D01*
X150153456Y-76567184D01*
X150159285Y-76550717D01*
X150169192Y-76510219D01*
X150182195Y-76450242D01*
X150197309Y-76375340D01*
X150213552Y-76290064D01*
X150214881Y-76282875D01*
X150231175Y-76195014D01*
X150246133Y-76115260D01*
X150258791Y-76048681D01*
X150268186Y-76000347D01*
X150273354Y-75975325D01*
X150273444Y-75974943D01*
X150276589Y-75964299D01*
X150282704Y-75956262D01*
X150295453Y-75950467D01*
X150318500Y-75946547D01*
X150355509Y-75944135D01*
X150410144Y-75942865D01*
X150486067Y-75942371D01*
X150586944Y-75942286D01*
X150600000Y-75942286D01*
X150703910Y-75942348D01*
G37*
X152744876Y-80656335D02*
X152786667Y-80675344D01*
X152819469Y-80698378D01*
X152843503Y-80724133D01*
X152860097Y-80757358D01*
X152870577Y-80802800D01*
X152876271Y-80865207D01*
X152878507Y-80949327D01*
X152878743Y-81004721D01*
X152878743Y-81220826D01*
X152841774Y-81237670D01*
X152812656Y-81249981D01*
X152798231Y-81254514D01*
X152795472Y-81241025D01*
X152793282Y-81204653D01*
X152791942Y-81151542D01*
X152791657Y-81109372D01*
X152790434Y-81048447D01*
X152787136Y-81000115D01*
X152782321Y-80970518D01*
X152778496Y-80964229D01*
X152752783Y-80970652D01*
X152712418Y-80987125D01*
X152665679Y-81009458D01*
X152620845Y-81033457D01*
X152586193Y-81054930D01*
X152570002Y-81069685D01*
X152569938Y-81069845D01*
X152571330Y-81097152D01*
X152583818Y-81123219D01*
X152605743Y-81144392D01*
X152637743Y-81151474D01*
X152665092Y-81150649D01*
X152703826Y-81150042D01*
X152724158Y-81159116D01*
X152736369Y-81183092D01*
X152737909Y-81187613D01*
X152743203Y-81221806D01*
X152729047Y-81242568D01*
X152692148Y-81252462D01*
X152652289Y-81254292D01*
X152580562Y-81240727D01*
X152543432Y-81221355D01*
X152497576Y-81175845D01*
X152473256Y-81119983D01*
X152471073Y-81060957D01*
X152491629Y-81005953D01*
X152522549Y-80971486D01*
X152553420Y-80952189D01*
X152601942Y-80927759D01*
X152658485Y-80902985D01*
X152667910Y-80899199D01*
X152730019Y-80871791D01*
X152765822Y-80847634D01*
X152777337Y-80823619D01*
X152766580Y-80796635D01*
X152748114Y-80775543D01*
X152704469Y-80749572D01*
X152656446Y-80747624D01*
X152612406Y-80767637D01*
X152580709Y-80807551D01*
X152576549Y-80817848D01*
X152552327Y-80855724D01*
X152516965Y-80883842D01*
X152472343Y-80906917D01*
X152472343Y-80841485D01*
X152474969Y-80801506D01*
X152486230Y-80769997D01*
X152511199Y-80736378D01*
X152535169Y-80710484D01*
X152572441Y-80673817D01*
X152601401Y-80654121D01*
X152632505Y-80646220D01*
X152667713Y-80644914D01*
X152744876Y-80656335D01*
G36*
X152744876Y-80656335D02*
G01*
X152786667Y-80675344D01*
X152819469Y-80698378D01*
X152843503Y-80724133D01*
X152860097Y-80757358D01*
X152870577Y-80802800D01*
X152876271Y-80865207D01*
X152878507Y-80949327D01*
X152878743Y-81004721D01*
X152878743Y-81220826D01*
X152841774Y-81237670D01*
X152812656Y-81249981D01*
X152798231Y-81254514D01*
X152795472Y-81241025D01*
X152793282Y-81204653D01*
X152791942Y-81151542D01*
X152791657Y-81109372D01*
X152790434Y-81048447D01*
X152787136Y-81000115D01*
X152782321Y-80970518D01*
X152778496Y-80964229D01*
X152752783Y-80970652D01*
X152712418Y-80987125D01*
X152665679Y-81009458D01*
X152620845Y-81033457D01*
X152586193Y-81054930D01*
X152570002Y-81069685D01*
X152569938Y-81069845D01*
X152571330Y-81097152D01*
X152583818Y-81123219D01*
X152605743Y-81144392D01*
X152637743Y-81151474D01*
X152665092Y-81150649D01*
X152703826Y-81150042D01*
X152724158Y-81159116D01*
X152736369Y-81183092D01*
X152737909Y-81187613D01*
X152743203Y-81221806D01*
X152729047Y-81242568D01*
X152692148Y-81252462D01*
X152652289Y-81254292D01*
X152580562Y-81240727D01*
X152543432Y-81221355D01*
X152497576Y-81175845D01*
X152473256Y-81119983D01*
X152471073Y-81060957D01*
X152491629Y-81005953D01*
X152522549Y-80971486D01*
X152553420Y-80952189D01*
X152601942Y-80927759D01*
X152658485Y-80902985D01*
X152667910Y-80899199D01*
X152730019Y-80871791D01*
X152765822Y-80847634D01*
X152777337Y-80823619D01*
X152766580Y-80796635D01*
X152748114Y-80775543D01*
X152704469Y-80749572D01*
X152656446Y-80747624D01*
X152612406Y-80767637D01*
X152580709Y-80807551D01*
X152576549Y-80817848D01*
X152552327Y-80855724D01*
X152516965Y-80883842D01*
X152472343Y-80906917D01*
X152472343Y-80841485D01*
X152474969Y-80801506D01*
X152486230Y-80769997D01*
X152511199Y-80736378D01*
X152535169Y-80710484D01*
X152572441Y-80673817D01*
X152601401Y-80654121D01*
X152632505Y-80646220D01*
X152667713Y-80644914D01*
X152744876Y-80656335D01*
G37*
X148443233Y-80842748D02*
X148582514Y-80842748D01*
X148584324Y-80874753D01*
X148594222Y-80884093D01*
X148618898Y-80877105D01*
X148657795Y-80860587D01*
X148701275Y-80839881D01*
X148702356Y-80839333D01*
X148739209Y-80819949D01*
X148754000Y-80807013D01*
X148750353Y-80793451D01*
X148734995Y-80775632D01*
X148695923Y-80749845D01*
X148653846Y-80747950D01*
X148616103Y-80766717D01*
X148590034Y-80802915D01*
X148582514Y-80842748D01*
X148443233Y-80842748D01*
X148447194Y-80806027D01*
X148471550Y-80736212D01*
X148505456Y-80687302D01*
X148566653Y-80637878D01*
X148634063Y-80613359D01*
X148702880Y-80611797D01*
X148768303Y-80631239D01*
X148825527Y-80669735D01*
X148869749Y-80725335D01*
X148896167Y-80796086D01*
X148901510Y-80848162D01*
X148900903Y-80869893D01*
X148895822Y-80886531D01*
X148881855Y-80901437D01*
X148854589Y-80917973D01*
X148809612Y-80939498D01*
X148742511Y-80969374D01*
X148742171Y-80969524D01*
X148680407Y-80997813D01*
X148629759Y-81022933D01*
X148595404Y-81042179D01*
X148582518Y-81052848D01*
X148582514Y-81052934D01*
X148593872Y-81076166D01*
X148620431Y-81101774D01*
X148650923Y-81120221D01*
X148666370Y-81123886D01*
X148708515Y-81111212D01*
X148744808Y-81079471D01*
X148762517Y-81044572D01*
X148779552Y-81018845D01*
X148812922Y-80989546D01*
X148852149Y-80964235D01*
X148886756Y-80950471D01*
X148893993Y-80949714D01*
X148902139Y-80962160D01*
X148902630Y-80993972D01*
X148896643Y-81036866D01*
X148885357Y-81082558D01*
X148869950Y-81122761D01*
X148869171Y-81124322D01*
X148822804Y-81189062D01*
X148762711Y-81233097D01*
X148694465Y-81254711D01*
X148623638Y-81252185D01*
X148555804Y-81223804D01*
X148552788Y-81221808D01*
X148499427Y-81173448D01*
X148464340Y-81110352D01*
X148444922Y-81027387D01*
X148442316Y-81004078D01*
X148437701Y-80894055D01*
X148443233Y-80842748D01*
G36*
X148443233Y-80842748D02*
G01*
X148582514Y-80842748D01*
X148584324Y-80874753D01*
X148594222Y-80884093D01*
X148618898Y-80877105D01*
X148657795Y-80860587D01*
X148701275Y-80839881D01*
X148702356Y-80839333D01*
X148739209Y-80819949D01*
X148754000Y-80807013D01*
X148750353Y-80793451D01*
X148734995Y-80775632D01*
X148695923Y-80749845D01*
X148653846Y-80747950D01*
X148616103Y-80766717D01*
X148590034Y-80802915D01*
X148582514Y-80842748D01*
X148443233Y-80842748D01*
X148447194Y-80806027D01*
X148471550Y-80736212D01*
X148505456Y-80687302D01*
X148566653Y-80637878D01*
X148634063Y-80613359D01*
X148702880Y-80611797D01*
X148768303Y-80631239D01*
X148825527Y-80669735D01*
X148869749Y-80725335D01*
X148896167Y-80796086D01*
X148901510Y-80848162D01*
X148900903Y-80869893D01*
X148895822Y-80886531D01*
X148881855Y-80901437D01*
X148854589Y-80917973D01*
X148809612Y-80939498D01*
X148742511Y-80969374D01*
X148742171Y-80969524D01*
X148680407Y-80997813D01*
X148629759Y-81022933D01*
X148595404Y-81042179D01*
X148582518Y-81052848D01*
X148582514Y-81052934D01*
X148593872Y-81076166D01*
X148620431Y-81101774D01*
X148650923Y-81120221D01*
X148666370Y-81123886D01*
X148708515Y-81111212D01*
X148744808Y-81079471D01*
X148762517Y-81044572D01*
X148779552Y-81018845D01*
X148812922Y-80989546D01*
X148852149Y-80964235D01*
X148886756Y-80950471D01*
X148893993Y-80949714D01*
X148902139Y-80962160D01*
X148902630Y-80993972D01*
X148896643Y-81036866D01*
X148885357Y-81082558D01*
X148869950Y-81122761D01*
X148869171Y-81124322D01*
X148822804Y-81189062D01*
X148762711Y-81233097D01*
X148694465Y-81254711D01*
X148623638Y-81252185D01*
X148555804Y-81223804D01*
X148552788Y-81221808D01*
X148499427Y-81173448D01*
X148464340Y-81110352D01*
X148444922Y-81027387D01*
X148442316Y-81004078D01*
X148437701Y-80894055D01*
X148443233Y-80842748D01*
G37*
X151129926Y-80649755D02*
X151195858Y-80674084D01*
X151249273Y-80717117D01*
X151270164Y-80747409D01*
X151292939Y-80802994D01*
X151292466Y-80843186D01*
X151268562Y-80870217D01*
X151259717Y-80874813D01*
X151221530Y-80889144D01*
X151202028Y-80885472D01*
X151195422Y-80861407D01*
X151195086Y-80848114D01*
X151182992Y-80799210D01*
X151151471Y-80764999D01*
X151107659Y-80748476D01*
X151058695Y-80752634D01*
X151018894Y-80774227D01*
X151005450Y-80786544D01*
X150995921Y-80801487D01*
X150989485Y-80824075D01*
X150985317Y-80859328D01*
X150982597Y-80912266D01*
X150980502Y-80987907D01*
X150979960Y-81011857D01*
X150977981Y-81093790D01*
X150975731Y-81151455D01*
X150972357Y-81189608D01*
X150967006Y-81213004D01*
X150958824Y-81226398D01*
X150946959Y-81234545D01*
X150939362Y-81238144D01*
X150907102Y-81250452D01*
X150888111Y-81254514D01*
X150881836Y-81240948D01*
X150878006Y-81199934D01*
X150876600Y-81130999D01*
X150877598Y-81033669D01*
X150877908Y-81018657D01*
X150880101Y-80929859D01*
X150882693Y-80865019D01*
X150886382Y-80819067D01*
X150891864Y-80786935D01*
X150899835Y-80763553D01*
X150910993Y-80743852D01*
X150916830Y-80735410D01*
X150950296Y-80698057D01*
X150987727Y-80669003D01*
X150992309Y-80666467D01*
X151059426Y-80646443D01*
X151129926Y-80649755D01*
G36*
X151129926Y-80649755D02*
G01*
X151195858Y-80674084D01*
X151249273Y-80717117D01*
X151270164Y-80747409D01*
X151292939Y-80802994D01*
X151292466Y-80843186D01*
X151268562Y-80870217D01*
X151259717Y-80874813D01*
X151221530Y-80889144D01*
X151202028Y-80885472D01*
X151195422Y-80861407D01*
X151195086Y-80848114D01*
X151182992Y-80799210D01*
X151151471Y-80764999D01*
X151107659Y-80748476D01*
X151058695Y-80752634D01*
X151018894Y-80774227D01*
X151005450Y-80786544D01*
X150995921Y-80801487D01*
X150989485Y-80824075D01*
X150985317Y-80859328D01*
X150982597Y-80912266D01*
X150980502Y-80987907D01*
X150979960Y-81011857D01*
X150977981Y-81093790D01*
X150975731Y-81151455D01*
X150972357Y-81189608D01*
X150967006Y-81213004D01*
X150958824Y-81226398D01*
X150946959Y-81234545D01*
X150939362Y-81238144D01*
X150907102Y-81250452D01*
X150888111Y-81254514D01*
X150881836Y-81240948D01*
X150878006Y-81199934D01*
X150876600Y-81130999D01*
X150877598Y-81033669D01*
X150877908Y-81018657D01*
X150880101Y-80929859D01*
X150882693Y-80865019D01*
X150886382Y-80819067D01*
X150891864Y-80786935D01*
X150899835Y-80763553D01*
X150910993Y-80743852D01*
X150916830Y-80735410D01*
X150950296Y-80698057D01*
X150987727Y-80669003D01*
X150992309Y-80666467D01*
X151059426Y-80646443D01*
X151129926Y-80649755D01*
G37*
X147891472Y-80928603D02*
X148030971Y-80928603D01*
X148031755Y-80990499D01*
X148035240Y-81030997D01*
X148043124Y-81057708D01*
X148057105Y-81078244D01*
X148066597Y-81088260D01*
X148105404Y-81117567D01*
X148139763Y-81119952D01*
X148175216Y-81095750D01*
X148176114Y-81094857D01*
X148190539Y-81076153D01*
X148199313Y-81050732D01*
X148203739Y-81011584D01*
X148205118Y-80951697D01*
X148205143Y-80938430D01*
X148201812Y-80855901D01*
X148190969Y-80798691D01*
X148171340Y-80763766D01*
X148141650Y-80748094D01*
X148124491Y-80746514D01*
X148083766Y-80753926D01*
X148055832Y-80778330D01*
X148039017Y-80822980D01*
X148031650Y-80891130D01*
X148030971Y-80928603D01*
X147891472Y-80928603D01*
X147891708Y-80915245D01*
X147893677Y-80850333D01*
X147896450Y-80802958D01*
X147900388Y-80769290D01*
X147905849Y-80745498D01*
X147913192Y-80727753D01*
X147922777Y-80712224D01*
X147926887Y-80706381D01*
X147981405Y-80651185D01*
X148050336Y-80619890D01*
X148130072Y-80611165D01*
X148199744Y-80619918D01*
X148255201Y-80647568D01*
X148304148Y-80698480D01*
X148317629Y-80717338D01*
X148332314Y-80742015D01*
X148341842Y-80768816D01*
X148347293Y-80804587D01*
X148349747Y-80856169D01*
X148350286Y-80924267D01*
X148347852Y-81017588D01*
X148339394Y-81087657D01*
X148323174Y-81139931D01*
X148297454Y-81179869D01*
X148260497Y-81212929D01*
X148257782Y-81214886D01*
X148221360Y-81234908D01*
X148177502Y-81244815D01*
X148121724Y-81247257D01*
X148031048Y-81247257D01*
X148031010Y-81335283D01*
X148030166Y-81384308D01*
X148025024Y-81413065D01*
X148011587Y-81430311D01*
X147985858Y-81444808D01*
X147979679Y-81447769D01*
X147950764Y-81461648D01*
X147928376Y-81470414D01*
X147911729Y-81471171D01*
X147900036Y-81461023D01*
X147892510Y-81437073D01*
X147888366Y-81396426D01*
X147886815Y-81336186D01*
X147887071Y-81253455D01*
X147888349Y-81145339D01*
X147888748Y-81113000D01*
X147890185Y-81001524D01*
X147891472Y-80928603D01*
G36*
X147891472Y-80928603D02*
G01*
X148030971Y-80928603D01*
X148031755Y-80990499D01*
X148035240Y-81030997D01*
X148043124Y-81057708D01*
X148057105Y-81078244D01*
X148066597Y-81088260D01*
X148105404Y-81117567D01*
X148139763Y-81119952D01*
X148175216Y-81095750D01*
X148176114Y-81094857D01*
X148190539Y-81076153D01*
X148199313Y-81050732D01*
X148203739Y-81011584D01*
X148205118Y-80951697D01*
X148205143Y-80938430D01*
X148201812Y-80855901D01*
X148190969Y-80798691D01*
X148171340Y-80763766D01*
X148141650Y-80748094D01*
X148124491Y-80746514D01*
X148083766Y-80753926D01*
X148055832Y-80778330D01*
X148039017Y-80822980D01*
X148031650Y-80891130D01*
X148030971Y-80928603D01*
X147891472Y-80928603D01*
X147891708Y-80915245D01*
X147893677Y-80850333D01*
X147896450Y-80802958D01*
X147900388Y-80769290D01*
X147905849Y-80745498D01*
X147913192Y-80727753D01*
X147922777Y-80712224D01*
X147926887Y-80706381D01*
X147981405Y-80651185D01*
X148050336Y-80619890D01*
X148130072Y-80611165D01*
X148199744Y-80619918D01*
X148255201Y-80647568D01*
X148304148Y-80698480D01*
X148317629Y-80717338D01*
X148332314Y-80742015D01*
X148341842Y-80768816D01*
X148347293Y-80804587D01*
X148349747Y-80856169D01*
X148350286Y-80924267D01*
X148347852Y-81017588D01*
X148339394Y-81087657D01*
X148323174Y-81139931D01*
X148297454Y-81179869D01*
X148260497Y-81212929D01*
X148257782Y-81214886D01*
X148221360Y-81234908D01*
X148177502Y-81244815D01*
X148121724Y-81247257D01*
X148031048Y-81247257D01*
X148031010Y-81335283D01*
X148030166Y-81384308D01*
X148025024Y-81413065D01*
X148011587Y-81430311D01*
X147985858Y-81444808D01*
X147979679Y-81447769D01*
X147950764Y-81461648D01*
X147928376Y-81470414D01*
X147911729Y-81471171D01*
X147900036Y-81461023D01*
X147892510Y-81437073D01*
X147888366Y-81396426D01*
X147886815Y-81336186D01*
X147887071Y-81253455D01*
X147888349Y-81145339D01*
X147888748Y-81113000D01*
X147890185Y-81001524D01*
X147891472Y-80928603D01*
G37*
D13*
%TO.C,BT1*%
X130150000Y-124550000D02*
X130150000Y-125550000D01*
X124050000Y-123978000D02*
X124050000Y-69622000D01*
X136750000Y-123978000D02*
X124050000Y-123978000D01*
X136750000Y-73720000D02*
X136750000Y-123978000D01*
X124050000Y-69622000D02*
X136750000Y-69622000D01*
X136750000Y-69622000D02*
X136750000Y-70690000D01*
X130400000Y-69050000D02*
X130400000Y-68050000D01*
X130900000Y-68550000D02*
X129900000Y-68550000D01*
%TD*%
M02*
